<?xml version="1.0" standalone="no"?>
<!DOCTYPE svg PUBLIC "-//W3C//DTD SVG 20010904//EN"
 "http://www.w3.org/TR/2001/REC-SVG-20010904/DTD/svg10.dtd">
<svg version="1.0" xmlns="http://www.w3.org/2000/svg"
 width="1920.000000pt" height="1080.000000pt" viewBox="0 0 1920.000000 1080.000000"
 preserveAspectRatio="xMidYMid meet">
<metadata>
Created by potrace 1.15, written by Peter Selinger 2001-2017
</metadata>
<g transform="translate(0.000000,1080.000000) scale(0.100000,-0.100000)"
fill="#000000" stroke="none">
<path d="M12319 9876 c-3 -3 -74 -7 -159 -10 -151 -4 -217 -16 -205 -36 3 -5
21 -10 40 -10 19 0 37 -4 40 -10 3 -5 16 -10 28 -10 15 0 28 -11 41 -35 11
-19 23 -35 28 -35 19 0 46 -37 52 -72 4 -21 4 -38 1 -38 -3 0 -24 9 -48 19
-53 25 -89 36 -102 32 -5 -1 -7 0 -3 4 4 4 -1 16 -11 27 -11 11 -22 34 -27 51
l-7 32 -4 -27 c-6 -43 -41 -20 -45 29 -2 28 -8 39 -22 41 -17 4 -18 3 -2 -19
29 -42 18 -52 -20 -21 -38 31 -54 32 -87 3 -17 -14 -17 -15 3 -23 17 -6 19
-11 10 -27 -5 -11 -10 -29 -10 -40 0 -14 -5 -19 -15 -15 -8 4 -15 15 -15 25 0
31 -20 22 -36 -17 -8 -20 -24 -38 -35 -41 -10 -3 -19 -10 -19 -15 0 -5 -5 -6
-12 -2 -7 4 -28 10 -48 14 -26 4 -36 11 -38 28 -2 13 2 22 10 22 8 0 29 11 48
25 49 36 13 31 -43 -6 -51 -34 -55 -43 -30 -71 13 -14 13 -18 2 -18 -8 0 -27
-28 -43 -63 -16 -34 -48 -87 -71 -117 -24 -31 -50 -76 -58 -100 -19 -56 -40
-103 -48 -110 -19 -16 -33 -94 -31 -182 1 -66 -3 -107 -13 -132 -9 -21 -15
-67 -15 -115 0 -69 3 -82 20 -91 11 -6 22 -26 26 -47 4 -20 18 -46 31 -57 32
-29 44 -133 19 -159 -10 -9 -13 -17 -7 -17 6 0 27 -18 47 -40 21 -22 44 -40
52 -40 8 0 29 -12 46 -28 29 -25 31 -30 23 -65 -10 -39 -23 -48 -34 -21 -4 10
1 22 12 30 10 8 17 15 14 16 -2 2 -19 13 -37 26 -18 13 -37 20 -42 17 -5 -3
-19 -1 -31 5 -11 7 -23 9 -26 6 -7 -7 17 -76 27 -76 5 0 23 -13 40 -30 17 -16
39 -30 49 -30 10 0 24 -6 30 -14 7 -8 30 -17 52 -21 49 -8 52 -41 5 -58 -16
-6 -13 -13 26 -50 32 -31 47 -54 52 -82 4 -22 11 -44 16 -50 4 -5 13 -28 20
-50 7 -22 16 -44 20 -50 5 -5 14 -77 21 -160 6 -82 16 -154 21 -159 10 -13 11
-136 0 -136 -5 0 -24 -13 -42 -30 -18 -16 -37 -30 -42 -30 -12 0 -67 -40 -94
-67 -12 -13 -26 -23 -33 -23 -6 0 -11 -4 -11 -9 0 -5 -11 -12 -25 -15 -14 -4
-25 -11 -25 -17 0 -12 -84 -98 -120 -122 -13 -9 -33 -17 -44 -17 -10 0 -25 -8
-32 -17 -9 -14 -16 -15 -24 -7 -20 20 -49 3 -71 -42 -11 -24 -25 -44 -30 -44
-6 0 -26 -16 -46 -35 -20 -20 -47 -38 -59 -41 -13 -3 -26 -15 -29 -25 -4 -10
-12 -20 -18 -20 -7 -1 -22 -3 -35 -4 -13 -1 -29 -8 -35 -15 -10 -10 -4 -11 28
-4 22 4 105 8 185 9 80 0 151 4 159 9 16 10 299 9 351 -1 l35 -7 -45 -7 c-82
-13 -140 -32 -140 -46 0 -7 -6 -13 -14 -13 -8 0 -22 -7 -31 -16 -8 -9 -24 -14
-34 -11 -15 3 -17 0 -13 -16 4 -16 2 -19 -11 -14 -10 4 -17 2 -17 -3 0 -6 -6
-10 -14 -10 -9 0 -12 -7 -9 -19 4 -15 -3 -20 -32 -25 -21 -4 -49 -18 -63 -31
-18 -17 -28 -21 -33 -13 -5 8 -14 1 -26 -20 -10 -18 -24 -32 -30 -32 -7 0 -13
-4 -13 -9 0 -4 -16 -7 -36 -5 -27 2 -37 -2 -41 -15 -5 -18 -143 -62 -195 -61
-17 0 -31 -7 -38 -20 -6 -11 -15 -18 -20 -15 -5 3 -14 -4 -20 -15 -9 -17 -19
-21 -53 -18 -34 2 -42 7 -42 22 0 11 -6 21 -13 24 -7 2 17 23 53 47 36 23 73
52 81 64 8 11 23 21 32 21 9 1 26 6 37 13 19 11 21 18 17 55 -3 17 -91 16
-135 -3 -46 -19 -51 -19 -43 1 5 12 1 14 -16 8 -79 -25 -136 -30 -167 -15 -26
12 -36 13 -51 3 -11 -7 -30 -12 -42 -13 -13 0 -17 -3 -10 -6 18 -7 15 -21 -8
-33 -16 -8 -23 -7 -37 10 -18 21 -43 27 -43 10 0 -5 -19 -14 -42 -21 -56 -14
-98 -37 -126 -66 -28 -31 -46 -25 -50 15 l-3 32 -27 -18 c-14 -9 -40 -30 -57
-45 -16 -16 -40 -36 -52 -44 -13 -8 -23 -19 -23 -25 0 -5 -17 -32 -38 -61 -44
-60 -67 -111 -57 -126 10 -17 -4 -51 -21 -51 -8 0 -14 -4 -14 -9 0 -5 -6 -16
-13 -23 -27 -27 -89 -315 -89 -413 0 -43 20 -186 38 -274 9 -42 16 -98 16
-126 -1 -48 -42 -181 -53 -170 -3 3 -14 -12 -25 -32 -20 -39 -28 -52 -54 -82
-15 -18 -27 -36 -62 -100 -11 -20 -26 -43 -32 -51 -18 -21 -52 -97 -67 -147
-7 -24 -15 -43 -18 -43 -4 0 -12 -19 -19 -43 -30 -108 -44 -223 -49 -402 -3
-132 -9 -199 -18 -220 -8 -16 -26 -61 -41 -100 -14 -38 -41 -97 -60 -131 -19
-33 -34 -66 -34 -72 0 -6 -16 -45 -35 -86 -19 -42 -35 -82 -35 -89 0 -8 -11
-47 -25 -87 -14 -40 -25 -82 -25 -92 0 -10 -4 -18 -9 -18 -5 0 -11 -17 -14
-37 -19 -157 -60 -409 -67 -411 -5 -2 -14 -35 -20 -75 -7 -40 -21 -117 -32
-172 -12 -63 -22 -176 -28 -312 -5 -118 -11 -217 -14 -222 -6 -9 -19 -388 -36
-1016 -9 -336 -26 -553 -49 -615 -5 -14 -12 -47 -14 -75 -3 -27 -10 -94 -17
-148 -11 -87 -10 -109 6 -188 l18 -89 493 0 493 0 0 31 c0 41 -22 173 -30 179
-18 15 -54 137 -65 225 -7 55 -20 117 -29 137 -9 21 -16 47 -16 59 0 27 -31
99 -42 99 -11 0 -10 -18 2 -25 15 -9 12 -41 -4 -54 -10 -8 -16 -9 -21 -1 -3 6
-11 8 -16 5 -12 -8 -42 22 -37 36 3 8 10 6 21 -5 13 -14 20 -15 34 -6 17 11
17 11 1 6 -20 -6 -24 14 -7 31 8 8 8 13 0 17 -6 4 -11 3 -11 -2 0 -5 -9 -9
-21 -8 -14 1 -28 16 -43 46 -15 29 -30 46 -44 48 -12 2 -22 10 -22 18 0 8 -9
14 -20 14 -15 0 -20 7 -20 25 0 16 -6 25 -15 25 -9 0 -15 -9 -15 -22 0 -36
-15 -9 -16 30 -1 48 16 98 27 80 12 -19 11 59 0 81 -11 20 -4 61 10 61 5 0 9
-11 9 -25 0 -14 5 -25 10 -25 6 0 10 -9 10 -20 0 -11 5 -20 10 -20 6 0 10 11
10 23 0 13 9 50 21 83 11 32 23 69 26 81 3 13 9 23 13 23 9 0 60 127 60 150 0
7 9 32 19 54 10 23 26 74 35 115 16 75 53 161 68 161 4 0 8 8 8 19 0 19 52
129 67 140 4 3 25 41 46 84 21 42 42 77 46 77 4 0 25 36 45 79 21 44 44 85 52
92 8 6 14 22 14 35 0 12 4 25 9 29 5 3 15 22 21 43 7 20 21 44 31 52 11 9 21
31 24 50 2 19 11 80 20 135 17 105 15 197 -7 279 -12 47 -4 85 18 78 9 -2 11
-8 13 -46 2 -35 21 -2 32 55 6 30 14 113 18 184 5 72 14 163 21 204 10 56 10
79 1 92 -13 22 -15 66 -2 74 5 3 12 -5 14 -17 3 -15 5 -10 6 13 0 23 7 39 16
43 8 3 30 38 49 78 18 40 45 84 60 97 14 14 26 31 26 38 0 8 11 25 25 39 30
30 108 166 130 226 15 39 38 150 66 313 6 33 14 64 19 69 10 10 62 -60 101
-137 17 -32 36 -60 44 -64 8 -3 15 -10 15 -16 0 -5 11 -25 25 -43 14 -18 25
-37 25 -43 0 -6 4 -11 9 -11 5 0 18 -17 29 -38 19 -37 20 -63 23 -608 4 -531
5 -571 22 -601 11 -18 23 -33 29 -33 5 0 7 -4 3 -9 -3 -5 -1 -12 5 -16 6 -4
21 -27 34 -53 14 -26 33 -53 45 -59 11 -7 25 -23 31 -35 9 -19 7 -19 -14 5
-14 15 -26 25 -26 21 0 -13 -47 55 -60 87 -7 16 -16 29 -21 29 -4 0 -18 20
-30 45 -25 49 -39 59 -63 42 -24 -17 -57 -227 -59 -368 -2 -83 -5 -115 -13
-112 -7 2 -15 0 -19 -6 -3 -6 -1 -11 6 -11 8 0 6 -6 -4 -18 -19 -20 -13 -32
14 -32 18 0 33 -26 24 -40 -3 -5 -1 -11 5 -15 5 -3 10 -11 10 -16 0 -6 -23 11
-51 38 -38 36 -49 53 -46 70 5 26 2 28 -19 11 -47 -38 -64 -59 -64 -81 0 -27
39 -110 40 -87 1 10 5 7 12 -7 15 -32 25 -29 32 12 4 19 9 35 11 35 11 0 89
-79 96 -98 5 -12 13 -21 17 -20 5 2 19 -8 30 -22 11 -14 23 -22 27 -18 11 11
-12 43 -52 73 -47 35 -121 109 -151 153 -34 49 -12 38 27 -13 18 -25 38 -45
44 -45 6 0 32 -22 57 -48 25 -27 66 -59 91 -73 43 -24 44 -25 47 -82 3 -59 3
-59 -45 -102 -26 -24 -58 -52 -71 -62 -19 -14 -25 -32 -29 -80 -3 -35 -10 -60
-15 -57 -4 3 -7 8 -4 12 2 4 0 16 -4 27 -6 17 -8 15 -12 -12 -4 -30 -2 -32 45
-47 78 -25 88 -22 166 52 39 37 71 72 71 78 1 12 36 54 47 54 4 0 20 14 35 32
15 18 28 27 28 21 0 -7 -22 -38 -50 -68 -27 -30 -50 -59 -50 -63 0 -4 -14 -22
-31 -40 -16 -17 -28 -32 -26 -32 3 0 -11 -17 -29 -37 -19 -20 -34 -40 -34 -44
0 -16 -59 -19 -91 -6 -42 18 -124 43 -164 51 -26 5 -28 4 -11 -7 43 -28 57
-43 60 -62 2 -14 12 -21 32 -23 25 -2 26 -1 11 8 -24 15 -13 28 17 23 16 -3
23 -10 19 -19 -4 -10 1 -13 16 -11 11 2 24 6 27 10 4 4 19 7 33 6 21 0 22 -2
8 -8 -16 -6 -16 -9 7 -30 23 -22 26 -22 32 -6 4 9 2 20 -6 25 -8 5 -8 10 -2
14 6 3 12 1 14 -4 2 -6 10 -13 18 -15 40 -9 59 -18 64 -31 11 -28 35 -14 48
27 7 25 19 44 30 47 17 4 18 6 3 22 -21 23 -11 28 50 24 68 -4 118 -17 123
-32 2 -7 -2 -11 -10 -10 -24 5 -13 -26 12 -32 17 -4 27 -16 34 -38 6 -21 17
-34 32 -38 12 -3 25 -12 28 -20 7 -17 36 -19 37 -1 1 6 2 21 3 32 0 11 -7 26
-16 33 -10 7 -20 28 -24 47 -3 18 -15 41 -25 51 -24 22 -24 35 2 57 11 10 18
24 15 32 -8 23 22 41 45 27 10 -7 28 -12 39 -12 18 0 47 -36 42 -53 -1 -4 9
-12 22 -18 14 -7 27 -22 30 -35 7 -28 48 -74 66 -74 15 0 33 -22 60 -73 11
-20 25 -37 31 -37 5 0 26 -16 46 -35 20 -19 39 -35 44 -35 15 0 21 80 8 97
-12 14 -11 15 9 9 19 -6 22 -4 22 19 0 14 -6 28 -14 31 -16 6 -71 112 -63 120
11 11 47 -22 47 -43 0 -21 5 -25 27 -22 4 0 10 -7 13 -16 5 -15 9 -14 23 8 11
17 17 49 18 91 1 41 6 66 13 66 8 0 9 -28 6 -92 -3 -51 -5 -94 -4 -96 0 -1 24
21 52 49 56 56 78 57 68 4 -4 -19 -2 -36 3 -39 6 -4 6 -19 1 -39 -16 -58 -28
-206 -34 -429 -2 -81 -7 -152 -11 -157 -3 -6 -2 -26 4 -46 11 -41 4 -75 -15
-75 -23 0 -16 -20 11 -32 19 -9 24 -16 19 -32 -8 -25 -4 -22 -36 -30 -24 -5
-28 -2 -38 29 -13 40 -37 62 -25 24 16 -54 38 -88 58 -91 11 -2 22 -8 24 -15
3 -7 -3 -11 -15 -8 -18 3 -19 -7 -26 -210 -8 -243 -5 -263 29 -259 26 2 59
-35 61 -71 1 -10 7 -21 13 -23 6 -2 11 -17 11 -32 0 -41 39 -83 78 -84 34 -1
44 19 14 27 -19 4 -38 47 -21 47 5 0 9 -4 9 -9 0 -8 31 -22 55 -25 5 -1 9 12
10 28 0 25 4 29 33 32 19 2 32 -1 32 -7 0 -7 8 -18 18 -25 11 -9 12 -13 4 -14
-19 0 3 -37 28 -45 11 -3 20 -13 20 -21 0 -8 4 -13 10 -9 5 3 7 12 3 20 -3 10
2 15 16 15 14 0 21 -6 21 -19 0 -10 7 -21 15 -25 21 -8 55 24 55 51 0 14 6 23
15 23 8 0 15 -9 15 -20 0 -11 -4 -20 -10 -20 -5 0 -10 -9 -10 -20 0 -18 7 -20
70 -20 58 0 72 3 77 18 11 30 35 52 60 52 12 0 23 5 23 10 0 10 -25 15 -45 9
-5 -1 -28 -3 -50 -4 -22 0 -46 -5 -54 -9 -10 -7 -21 -1 -35 17 -18 22 -23 24
-31 12 -6 -10 -15 -12 -23 -6 -12 7 -11 14 3 41 16 31 16 32 -3 25 -25 -7 -38
11 -22 30 7 8 10 25 7 37 -12 43 29 80 57 52 13 -13 16 -12 26 7 7 12 18 18
26 15 8 -3 14 -1 14 4 0 6 -4 10 -10 10 -5 0 -7 7 -4 15 8 19 28 19 48 0 21
-21 23 -19 30 19 9 45 35 76 66 80 14 1 30 5 35 8 13 8 55 -9 55 -21 0 -6 7
-8 16 -4 8 3 13 11 10 18 -2 7 0 17 6 23 6 6 1 12 -17 16 -21 5 -25 12 -23 33
2 20 -3 30 -20 39 -13 6 -29 17 -35 23 -6 6 -26 11 -44 11 -30 0 -33 3 -33 30
0 22 -4 28 -15 24 -8 -4 -15 -1 -15 5 0 6 -7 11 -15 11 -9 0 -18 7 -21 15 -3
8 -22 19 -42 26 -21 6 -61 22 -91 36 -42 20 -59 23 -72 15 -13 -8 -19 -8 -23
3 -9 23 -26 17 -26 -8 0 -14 -6 -24 -15 -24 -20 0 -19 16 1 38 21 23 12 49
-15 42 -13 -3 -23 2 -30 16 -13 23 -2 28 18 9 11 -11 13 -10 7 5 -3 10 -6 21
-6 23 0 2 -7 4 -15 4 -16 0 -18 9 -15 50 3 45 23 47 46 5 6 -11 19 -20 29 -20
10 0 20 -6 23 -14 3 -10 0 -11 -9 -5 -28 17 -39 12 -39 -17 0 -16 5 -29 10
-29 6 0 16 -11 22 -25 6 -14 16 -24 22 -22 6 3 19 0 28 -4 20 -11 29 0 22 29
-4 11 -12 18 -19 16 -17 -7 -23 15 -14 46 7 25 7 25 8 2 1 -30 26 -23 27 7 1
13 7 27 15 31 14 9 16 54 4 84 -9 20 11 39 33 31 15 -6 15 -2 -3 42 -21 49
-19 61 10 61 14 0 25 -4 25 -9 0 -9 114 -4 130 6 6 3 10 -3 10 -15 0 -13 -8
-24 -18 -27 -23 -6 -48 -71 -33 -86 7 -7 14 -7 23 0 7 6 21 9 32 7 31 -5 69
14 62 32 -7 18 30 53 56 54 9 0 20 5 24 12 10 16 34 -19 27 -39 -5 -12 -7 -12
-14 -1 -7 10 -9 9 -9 -4 0 -10 5 -18 10 -18 6 0 10 -7 10 -15 0 -18 16 -20 23
-2 3 7 6 5 6 -5 1 -10 8 -18 16 -18 8 0 15 -7 15 -15 0 -13 28 -35 45 -35 3 0
3 16 -1 36 -5 29 -4 36 7 32 8 -3 14 -13 15 -24 0 -18 4 -29 25 -83 16 -39 23
-14 9 29 -11 33 -11 43 0 53 10 9 13 9 17 0 7 -21 21 -15 37 15 8 15 15 24 16
21 0 -3 18 11 41 33 22 21 37 43 34 48 -3 6 5 10 20 10 29 0 45 27 24 41 -11
6 -8 9 9 9 15 0 22 -6 22 -20 0 -11 4 -20 8 -20 15 0 32 24 32 46 0 16 6 22
23 22 62 1 163 14 172 23 5 5 21 9 36 9 15 0 31 5 35 11 4 7 25 9 56 7 27 -3
51 -1 54 3 3 5 14 9 24 9 10 0 23 6 27 14 11 18 53 31 53 15 0 -9 3 -9 15 1 8
6 19 9 24 5 6 -3 39 -1 73 5 94 16 101 19 88 35 -6 8 -10 26 -8 42 l4 28 13
-27 c16 -32 29 -29 26 6 -4 31 -14 48 -25 41 -4 -2 -30 -6 -56 -6 -35 -2 -54
-8 -67 -23 -14 -16 -20 -18 -26 -7 -5 8 -14 10 -22 6 -7 -5 -27 -10 -43 -11
-111 -8 -184 -15 -206 -21 -32 -8 -45 -9 -102 -11 -26 -1 -53 -9 -62 -17 -16
-16 -61 -21 -52 -6 3 5 -8 8 -26 7 -46 -3 -126 11 -164 29 -17 8 -54 37 -80
63 -39 37 -53 62 -69 112 -21 72 -50 126 -58 113 -10 -16 4 -77 25 -105 20
-28 10 -40 -11 -14 -15 18 -49 27 -57 15 -3 -5 2 -9 10 -9 19 0 19 1 5 -39
-13 -36 -43 -40 -45 -6 -2 35 -16 66 -28 62 -18 -7 -17 34 0 61 10 15 13 34 9
52 -3 16 -2 31 4 35 6 3 11 1 11 -4 0 -6 5 -11 11 -11 5 0 8 4 5 9 -3 5 1 14
9 21 19 16 19 1 0 -27 -11 -16 -12 -22 -3 -25 7 -3 12 -17 13 -33 0 -16 6 -30
14 -33 10 -3 12 1 8 17 -4 15 1 29 15 43 12 12 17 26 13 36 -4 9 -9 35 -11 57
l-5 40 25 -48 c14 -26 26 -57 26 -67 0 -10 4 -21 9 -24 4 -3 19 -38 31 -78 26
-82 53 -117 111 -143 21 -10 39 -21 39 -25 0 -35 229 -46 445 -22 66 8 125 17
130 21 6 4 44 14 85 21 66 11 201 40 269 57 41 10 61 34 61 74 0 46 -10 99
-20 99 -12 0 -29 -44 -33 -88 -3 -31 -11 -48 -28 -60 -13 -9 -26 -16 -29 -16
-3 0 -23 -4 -45 -8 -48 -11 -114 -25 -175 -37 -44 -9 -71 -5 -53 8 14 10 3
123 -12 117 -7 -2 -18 7 -25 20 -12 21 -11 26 6 39 10 8 14 15 9 15 -6 0 -16
-5 -21 -10 -7 -7 -19 -6 -37 2 -28 14 -33 23 -17 33 23 14 10 35 -22 35 -31 0
-32 12 -2 16 36 6 44 14 40 45 -1 17 -9 35 -16 39 -9 6 1 15 33 29 26 12 47
25 47 30 0 12 46 20 62 10 9 -6 5 -9 -13 -9 -15 0 -37 -8 -50 -19 l-23 -18 37
-5 c26 -3 37 0 37 9 0 12 13 18 34 14 5 -1 16 1 25 4 13 5 12 9 -9 21 -24 14
-21 15 38 11 l62 -3 0 37 c0 47 -10 99 -20 99 -4 0 -20 -12 -36 -27 -27 -26
-35 -27 -121 -28 -51 -1 -90 2 -87 7 3 4 12 8 20 8 8 0 14 5 14 10 0 6 -4 10
-10 10 -5 0 -10 7 -10 15 0 20 -19 19 -27 -1 -5 -15 -8 -15 -17 -2 -8 11 -19
12 -43 6 -18 -5 -33 -12 -33 -17 0 -10 45 -31 68 -31 37 -1 -19 -21 -71 -26
-80 -8 -117 2 -117 31 0 41 -17 37 -36 -10 -18 -43 -51 -64 -74 -50 -13 8 -13
42 0 50 16 10 12 25 -5 19 -11 -5 -15 1 -15 17 0 29 40 52 57 33 7 -6 10 -14
7 -17 -3 -2 2 -7 10 -10 9 -4 17 1 21 14 4 11 16 19 28 20 21 0 21 1 2 9 -16
7 -16 9 -4 9 22 1 62 22 83 44 10 9 29 18 44 19 15 0 47 2 72 3 77 4 77 4 60
15 -9 6 -10 10 -3 10 6 0 14 -4 17 -9 4 -5 29 -15 56 -22 28 -7 50 -16 50 -21
0 -4 8 -8 19 -8 14 0 17 6 14 28 -5 25 -2 24 44 -23 38 -39 56 -50 80 -50 25
0 29 3 21 13 -6 7 -17 11 -24 8 -15 -6 -71 61 -60 71 3 3 6 1 6 -6 0 -7 7 -11
15 -8 8 4 17 2 21 -4 4 -6 14 -5 29 5 22 15 23 15 30 -47 4 -41 3 -63 -4 -65
-6 -2 -11 -11 -11 -19 0 -13 -3 -13 -15 -3 -8 7 -15 21 -15 32 0 10 -4 16 -10
13 -5 -3 -10 -44 -10 -91 0 -49 -4 -84 -10 -84 -5 0 -10 -13 -10 -28 0 -37 60
-92 101 -92 19 0 29 5 29 15 0 22 15 18 36 -10 30 -39 38 -29 9 12 -16 24 -25
52 -25 75 0 20 -4 39 -9 42 -29 19 -50 261 -27 318 8 18 14 69 15 114 1 66 -5
99 -34 189 -19 60 -38 111 -42 114 -15 11 -55 109 -49 119 3 5 -1 12 -9 16 -8
3 -15 12 -15 20 0 8 -9 18 -20 21 -23 7 -23 7 -10 135 5 52 10 133 11 180 1
47 5 90 9 95 4 6 10 48 14 95 11 161 41 329 70 395 7 17 19 58 26 91 14 72 14
71 63 107 20 15 37 34 37 41 0 7 13 28 30 47 16 19 58 70 94 114 36 44 75 91
88 105 13 13 38 44 56 69 18 25 36 48 41 51 5 3 27 41 48 84 21 44 42 79 48
78 5 0 16 -22 25 -49 9 -26 25 -65 35 -85 11 -21 36 -68 55 -105 19 -37 42
-74 51 -80 9 -7 23 -29 32 -50 8 -21 26 -49 39 -63 13 -14 36 -44 52 -67 16
-24 35 -43 42 -43 8 0 14 -7 14 -15 0 -8 16 -27 35 -42 20 -15 52 -42 71 -60
20 -18 44 -35 55 -38 19 -6 49 -63 63 -120 4 -16 16 -47 26 -70 10 -22 23 -76
30 -120 6 -44 18 -118 26 -164 8 -51 14 -153 14 -262 0 -113 4 -179 10 -179 6
0 10 -11 10 -24 0 -68 51 -231 99 -316 17 -30 31 -63 31 -72 0 -9 11 -30 25
-46 14 -17 25 -34 25 -40 0 -15 56 -131 73 -150 7 -9 24 -42 36 -72 13 -30 36
-83 52 -117 16 -35 41 -105 54 -155 14 -51 29 -94 35 -96 5 -2 10 -12 10 -22
0 -37 54 -220 68 -229 11 -7 48 -145 61 -228 8 -53 6 -80 -15 -180 -14 -65
-25 -131 -26 -148 -1 -18 -12 -41 -27 -56 -38 -39 -56 -63 -54 -70 1 -4 -4
-10 -12 -13 -10 -3 -12 0 -8 12 6 15 5 15 -10 3 -19 -15 -67 -112 -67 -134 0
-8 -6 -20 -14 -26 -8 -6 -17 -37 -21 -69 -3 -31 -13 -75 -20 -98 -15 -44 -6
-194 15 -264 6 -19 14 -81 17 -137 l6 -103 144 0 143 0 0 62 c0 48 3 59 12 50
7 -7 22 -12 35 -12 21 0 23 -5 23 -44 0 -26 -5 -46 -12 -50 -7 -2 138 -5 323
-5 l335 0 12 33 c15 40 16 79 2 71 -6 -3 -15 6 -21 22 -9 24 -50 73 -62 73 -3
0 -7 -13 -10 -30 -7 -35 -22 -39 -37 -10 -6 11 -16 18 -21 14 -15 -9 -66 15
-74 34 -5 13 -10 10 -22 -16 -15 -31 -45 -43 -58 -22 -3 6 -16 10 -28 10 -23
0 -92 68 -102 100 -4 11 -9 20 -13 20 -4 0 -19 12 -33 28 -15 15 -53 55 -86
88 -33 34 -67 77 -76 97 -10 20 -26 38 -36 42 -23 7 -59 45 -42 45 8 0 7 7 -3
22 -9 12 -16 33 -16 45 0 13 -4 23 -10 23 -5 0 -10 8 -10 18 0 14 2 15 10 2 8
-12 10 -12 10 5 0 21 45 49 62 39 5 -4 3 7 -6 23 -13 25 -13 30 0 30 8 0 14
-4 14 -8 0 -3 9 -9 20 -12 17 -4 18 -2 9 14 -5 11 -7 24 -4 29 3 5 -3 14 -12
20 -15 9 -14 10 10 5 22 -4 27 -2 27 15 0 11 8 23 18 26 34 11 47 22 48 40 3
48 5 54 20 54 9 0 14 6 11 13 -2 6 2 18 9 25 8 7 14 9 14 5 0 -5 9 -14 20 -21
19 -11 20 -10 17 25 -2 34 0 37 29 43 53 11 87 1 114 -35 14 -19 49 -52 78
-75 42 -33 52 -47 52 -71 0 -16 4 -29 8 -29 5 0 7 26 4 57 -4 57 -30 103 -57
103 -6 0 -27 19 -45 43 -19 23 -40 46 -47 50 -7 4 -13 15 -13 22 0 9 -9 15
-21 15 -11 0 -27 7 -35 15 -22 22 -47 19 -39 -4 5 -16 2 -18 -15 -14 -22 6
-27 19 -8 25 6 2 -3 14 -20 27 -18 12 -32 29 -32 37 0 20 17 17 41 -7 17 -17
23 -19 30 -8 12 19 -2 30 -48 36 -34 4 -41 10 -57 47 -10 22 -21 61 -23 86 -3
25 -11 59 -19 77 -18 40 -18 43 6 43 14 0 21 9 26 37 4 21 11 44 17 51 8 10 5
14 -11 19 -15 3 -22 13 -22 29 0 13 5 24 10 24 6 0 10 7 10 15 0 9 7 18 15 21
8 4 15 13 15 21 0 12 2 12 15 -1 8 -8 15 -19 15 -24 0 -17 35 -41 48 -33 15 9
8 53 -16 90 -8 14 -15 43 -16 67 -2 31 -10 50 -32 73 -16 17 -29 37 -29 44 -1
22 -38 92 -57 105 -10 7 -18 17 -18 21 0 5 -18 36 -40 69 -22 33 -40 62 -40
66 0 8 72 2 88 -7 8 -6 12 -2 12 12 0 14 6 21 19 21 29 0 51 11 51 25 0 7 14
15 31 19 40 8 33 26 -17 43 -21 7 -56 28 -77 47 -32 28 -36 36 -24 47 7 8 14
19 15 24 1 6 6 10 11 10 15 0 51 47 51 66 0 10 -5 21 -12 25 -8 5 -7 10 4 18
21 15 28 54 17 84 -7 18 -6 27 3 33 9 6 9 13 -1 32 -18 34 -5 54 20 31 10 -9
19 -12 19 -6 0 6 -7 15 -17 20 -12 7 -14 18 -10 40 4 20 1 34 -8 42 -8 7 -15
21 -15 31 0 10 -4 21 -10 24 -16 10 -12 25 5 19 10 -4 15 0 15 11 0 11 -5 15
-15 11 -12 -4 -14 0 -9 20 5 19 0 30 -20 47 -23 20 -25 27 -17 48 7 18 10 19
10 6 1 -10 8 -20 17 -24 9 -3 27 -17 41 -31 13 -13 27 -21 31 -18 3 4 -5 17
-18 29 -14 12 -34 33 -45 45 -16 20 -17 25 -5 32 10 7 11 10 3 10 -7 0 -13 8
-13 19 0 10 -10 26 -22 35 -15 10 -18 16 -8 15 8 -1 22 -1 30 0 13 1 13 2 0
11 -10 6 -11 10 -3 10 18 0 10 76 -11 98 -19 22 -21 48 -3 55 9 4 8 8 -4 18
-8 8 -23 26 -32 41 -12 19 -29 29 -59 35 -35 7 -42 13 -40 29 2 13 -10 32 -33
52 -19 18 -35 40 -35 49 0 14 2 14 20 -2 11 -10 20 -13 20 -8 0 6 -7 13 -15
17 -8 3 -15 12 -15 21 0 8 -4 15 -10 15 -5 0 -10 19 -10 42 0 23 -6 49 -14 57
-7 9 -17 27 -21 39 -6 21 -5 23 16 17 19 -6 21 -5 13 11 -5 11 -8 45 -8 76 1
32 -2 58 -7 58 -5 0 -9 9 -9 20 0 10 -9 24 -20 30 -26 14 -25 36 2 43 17 5 19
9 9 21 -9 10 -9 16 -1 21 7 4 10 16 7 26 -3 11 -1 16 4 13 6 -3 9 10 7 30 -1
27 -7 36 -20 36 -10 0 -18 4 -18 9 0 5 -21 12 -47 17 -27 4 -40 9 -30 11 25 6
21 23 -6 23 -29 0 -67 27 -67 48 0 13 -2 14 -12 3 -10 -11 -10 -14 0 -18 18
-7 15 -33 -4 -33 -9 0 -23 -8 -29 -17 -12 -16 -17 -15 -62 17 -26 18 -52 40
-56 47 -4 7 -14 13 -21 13 -15 0 -66 52 -66 67 0 6 -7 13 -15 17 -8 3 -27 30
-41 60 -24 50 -45 72 -146 147 -15 11 -37 41 -50 67 -13 26 -29 54 -36 63 -14
16 -61 144 -62 167 -1 33 19 5 39 -58 13 -38 30 -75 38 -82 8 -6 22 -28 31
-47 10 -20 30 -42 47 -50 17 -8 35 -20 40 -26 6 -7 22 -20 38 -30 26 -17 27
-17 27 4 0 19 2 20 20 9 17 -10 18 -14 5 -16 -16 -4 -21 -32 -5 -32 6 0 10 -7
10 -15 0 -21 13 -19 28 5 10 17 10 20 -4 20 -13 0 -14 3 -4 14 9 12 7 18 -9
32 -11 10 -18 21 -16 25 9 14 -25 78 -44 84 -11 3 -23 15 -26 26 -4 10 -13 19
-21 19 -8 0 -14 8 -14 19 0 10 -16 31 -36 46 -30 23 -35 33 -32 56 3 20 0 29
-9 29 -7 0 -13 11 -13 24 0 35 -10 56 -27 56 -12 0 -14 8 -9 36 6 29 3 42 -18
69 -14 19 -26 37 -26 42 0 12 -72 73 -87 73 -7 0 -13 -7 -13 -15 0 -8 -9 -15
-20 -15 -17 0 -19 -4 -14 -27 4 -16 11 -30 15 -33 4 -3 17 -31 29 -62 11 -31
27 -62 35 -68 8 -7 15 -18 15 -25 0 -7 9 -15 20 -18 28 -7 26 -37 -3 -37 -16
0 -26 9 -36 33 -33 80 -45 103 -62 123 -10 11 -28 49 -40 85 -11 35 -29 82
-39 104 -17 37 -21 76 -24 200 l-1 49 85 -1 c169 -1 174 -1 160 -18 -12 -14 0
-22 13 -9 11 11 69 13 109 4 24 -5 38 -4 41 3 1 5 23 18 47 27 30 12 44 23 42
34 -1 8 4 26 13 39 8 13 12 27 8 30 -3 4 -1 7 6 7 7 0 9 5 6 11 -4 5 1 19 11
30 13 15 15 22 6 31 -7 7 -12 26 -12 44 0 18 -6 35 -12 37 -10 4 -10 7 -1 14
13 10 13 86 0 99 -4 4 -7 18 -7 32 0 27 -27 80 -50 99 -8 7 -27 13 -41 13 -15
0 -29 7 -33 15 -3 8 -14 15 -24 15 -10 0 -38 12 -63 28 -51 31 -83 47 -121 62
-16 5 -28 16 -28 24 0 8 -8 22 -17 32 -13 13 -14 19 -5 22 17 5 15 15 -6 40
-11 12 -27 19 -38 17 -70 -14 -74 -16 -74 -35 0 -28 -16 -25 -37 6 -34 53
-112 68 -178 34 -29 -15 -34 -20 -18 -20 30 0 38 -18 18 -40 -9 -10 -12 -21
-7 -24 12 -7 35 -135 30 -171 -4 -32 -11 -23 -23 28 -6 28 -49 77 -67 77 -5 0
-8 -8 -7 -17 3 -35 -4 -147 -8 -118 -5 36 -33 99 -40 91 -3 -3 -12 2 -19 12
-12 16 -13 16 -19 0 -4 -10 -2 -31 3 -48 10 -29 10 -30 -9 -19 -27 14 -31 9
-20 -27 31 -102 54 -241 43 -248 -5 -3 -10 -38 -11 -77 -1 -39 -5 -78 -10 -88
-4 -9 -14 -51 -22 -94 -15 -89 -29 -109 -49 -71 -11 19 -20 24 -36 20 -13 -4
-27 0 -34 9 -10 12 -16 13 -26 4 -10 -8 -18 -8 -26 -1 -8 5 -22 6 -33 1 -34
-13 -44 -10 -51 16 -6 26 -34 35 -34 11 0 -8 -7 -16 -15 -20 -12 -4 -14 0 -9
19 7 27 5 28 -113 27 -49 -1 -75 13 -85 43 -2 6 -13 10 -25 10 -11 1 -27 6
-35 11 -20 16 -69 33 -103 36 -17 2 -34 11 -40 23 -28 56 -43 67 -79 63 -35
-4 -36 -3 -36 29 0 23 -5 33 -15 33 -8 0 -15 7 -15 15 0 9 -9 15 -25 15 -14 0
-28 7 -32 15 -5 14 -7 14 -23 0 -10 -9 -29 -16 -42 -14 -13 1 -31 -2 -41 -6
-22 -9 -37 3 -17 15 18 11 8 22 -25 25 -29 4 -33 -9 -8 -24 25 -14 9 -25 -16
-11 -12 6 -21 21 -21 35 0 14 -14 37 -35 56 -19 19 -35 43 -35 55 0 13 -8 24
-20 27 -11 3 -20 12 -20 21 0 9 -4 16 -10 16 -5 0 -10 6 -10 13 0 7 -10 17
-22 22 -28 12 -52 56 -37 66 6 3 -5 9 -25 13 -20 4 -36 9 -36 12 0 11 29 34
42 34 10 0 10 2 -1 9 -10 6 -10 10 -1 16 8 5 7 10 -3 18 -8 7 -18 22 -21 33
-5 17 -1 23 16 29 21 7 21 8 4 12 -12 3 -25 -2 -33 -13 -9 -12 -13 -14 -13 -4
0 7 -10 33 -21 58 -17 33 -26 43 -40 39 -16 -4 -18 -1 -13 18 5 20 -2 39 -33
94 -2 2 -9 -2 -18 -9 -9 -8 -15 -8 -15 -2 0 10 -26 22 -59 26 -9 2 -20 12 -26
23 -5 12 -22 24 -38 27 -25 5 -27 8 -17 21 10 12 10 15 -2 15 -20 0 -44 31
-44 55 1 14 7 19 21 16 11 -2 60 3 108 9 66 10 91 10 99 2 15 -15 52 -16 42
-1 -4 8 6 10 35 6 22 -2 41 0 41 4 0 5 -11 9 -24 9 -18 0 -26 7 -29 23 l-4 22
-8 -22 c-10 -30 -29 -29 -43 1 -7 15 -19 24 -30 23 -44 -3 -141 41 -125 57 4
3 -8 6 -25 6 -45 0 -41 24 8 44 22 9 47 16 55 16 8 0 15 4 15 9 0 4 35 18 78
31 140 41 152 45 152 52 0 5 -3 8 -7 8 -5 0 -14 4 -22 9 -12 8 -12 12 -2 24 8
10 9 17 1 22 -5 3 -10 13 -10 21 0 8 -13 29 -30 47 -27 29 -58 122 -45 135 3
3 5 0 5 -6 0 -18 69 -15 76 2 3 8 12 12 19 10 7 -3 16 0 20 7 6 9 0 10 -21 5
-42 -10 -64 -9 -80 5 -12 9 -9 19 15 64 23 42 28 61 24 93 -3 24 -1 42 6 46
16 11 14 20 -14 50 -30 33 -32 50 -5 43 15 -4 20 0 20 15 0 11 -8 22 -18 25
-13 3 -19 14 -19 35 0 16 -4 33 -10 36 -16 10 -21 144 -5 137 6 -2 12 2 12 10
0 8 -5 15 -11 15 -6 0 -9 6 -6 13 3 8 1 34 -3 59 -6 32 -5 59 5 92 15 49 4 65
-13 19 -11 -31 -47 -73 -62 -73 -6 0 -10 20 -10 45 0 25 -4 45 -8 45 -5 0 -16
15 -24 34 -16 32 -15 35 7 72 15 26 20 44 15 54 -9 18 -6 136 5 161 12 30 -25
119 -57 139 -16 10 -36 27 -44 39 -8 11 -25 21 -37 21 -12 0 -33 9 -47 20 -33
25 -33 90 0 125 13 14 25 23 28 20 11 -11 44 18 39 34 -4 15 2 18 33 18 53 0
60 8 60 63 0 53 -11 70 -59 90 -18 7 -34 22 -37 35 -6 25 -29 35 -85 35 l-36
0 -7 56 c-4 32 -15 67 -26 81 -20 26 -18 45 3 42 7 -1 19 0 27 3 8 4 23 9 34
12 12 4 17 13 13 26 -7 26 14 26 36 0 9 -11 25 -20 35 -20 20 0 62 -39 62 -58
0 -18 18 -14 29 6 15 26 33 2 35 -50 2 -40 13 -74 38 -122 15 -29 44 -123 63
-208 10 -43 22 -78 27 -78 5 0 9 -33 8 -72 0 -168 6 -337 13 -344 4 -4 7 6 7
22 1 55 19 1 28 -82 8 -75 9 -77 16 -39 20 105 49 144 109 146 36 1 92 25 79
33 -7 4 -16 5 -21 1 -5 -3 -12 -1 -16 5 -4 6 11 18 32 28 57 25 93 57 93 81 0
19 -2 20 -22 9 -13 -7 -30 -18 -38 -25 -8 -6 -33 -13 -55 -15 -33 -2 -41 -7
-43 -26 -5 -32 -44 -45 -79 -27 -16 8 -36 16 -46 19 -23 7 -18 40 7 44 11 3
16 0 12 -7 -4 -6 -1 -11 7 -11 8 0 18 7 21 16 3 8 2 13 -3 10 -12 -8 -72 14
-66 24 3 4 23 6 44 3 37 -5 39 -4 34 16 -6 25 4 27 28 5 10 -9 23 -13 28 -9
16 9 13 25 -4 25 -8 0 -15 7 -15 17 0 9 3 14 6 10 7 -7 45 31 62 63 9 16 14
64 15 136 l1 110 -34 37 c-18 20 -41 37 -52 37 -10 0 -18 5 -18 11 0 7 11 9
27 6 26 -5 26 -4 8 9 -14 10 -19 28 -21 66 -1 46 0 49 12 33 8 -10 14 -25 14
-32 0 -20 48 -15 70 7 11 11 20 28 20 38 -1 13 -5 11 -23 -10 -13 -16 -25 -28
-29 -28 -10 0 -21 82 -23 175 -2 82 -1 87 11 60 7 -16 13 -45 14 -62 0 -18 5
-33 10 -33 16 0 -1 113 -19 127 -9 6 -12 15 -8 20 5 4 13 0 18 -9 15 -26 49
-11 49 22 0 24 6 30 38 41 20 6 43 17 51 23 11 9 9 12 -10 17 -13 4 -45 7 -71
8 -37 1 -48 -3 -48 -14 0 -12 -7 -9 -27 10 -15 14 -32 25 -36 25 -5 0 -26 18
-48 40 -22 22 -45 40 -51 40 -7 0 9 -21 35 -46 26 -25 47 -51 47 -57 0 -8 -3
-9 -8 -1 -4 5 -24 23 -45 39 -50 37 -127 113 -127 126 0 11 -104 119 -115 119
-19 0 -95 45 -95 56 0 7 -6 15 -12 17 -8 3 -6 6 5 6 20 1 23 21 3 21 -8 0 -28
-8 -44 -17 -30 -17 -30 -17 -8 -29 11 -7 35 -19 51 -27 17 -8 36 -21 44 -30 7
-10 19 -17 25 -17 7 0 27 -20 46 -45 19 -25 37 -45 41 -45 8 0 46 -70 60 -110
8 -22 6 -22 -18 8 -16 18 -34 32 -40 32 -7 0 -13 5 -13 11 0 6 -6 9 -12 6 -7
-2 -12 -10 -10 -16 1 -6 -2 -11 -7 -11 -5 0 -11 17 -15 38 -4 26 -18 49 -48
77 -50 47 -108 85 -132 85 -9 0 -16 5 -16 10 0 6 -9 10 -20 10 -11 0 -20 3
-20 8 0 4 -3 17 -6 30 -5 16 -2 22 9 22 26 0 27 16 2 18 -13 1 -27 -3 -30 -8
-9 -15 -45 -12 -45 4 0 19 -39 31 -53 17 -6 -6 -25 -11 -41 -11 -30 0 -29 1
16 25 26 14 57 25 70 25 18 0 20 2 8 9 -24 16 -103 23 -146 13 -49 -11 -93 5
-72 26 8 8 9 15 2 22 -6 6 -12 8 -15 6z m291 -274 c0 -4 12 -12 28 -18 40 -15
142 -83 142 -94 0 -5 -12 -8 -27 -5 -54 8 -123 15 -123 11 0 -2 11 -15 25 -30
14 -15 25 -34 25 -44 0 -11 -12 -3 -36 23 -104 115 -97 105 -74 105 12 0 18 5
15 10 -8 13 4 50 16 50 5 0 9 -4 9 -8z m-969 -879 c1 -32 1 -65 0 -75 -1 -9 5
-32 13 -52 8 -19 13 -43 10 -53 -9 -42 -10 -148 -2 -196 17 -98 34 -279 26
-283 -11 -7 -16 11 -22 86 -8 96 -36 251 -51 280 -27 53 -26 187 1 328 8 43
24 21 25 -35z m694 -68 c41 -48 52 -56 78 -53 28 3 31 0 57 -64 26 -64 25 -74
-4 -69 -5 1 -6 -5 -3 -14 4 -9 1 -15 -9 -15 -11 0 -14 -6 -10 -16 3 -9 6 -22
6 -30 0 -8 10 -18 23 -23 63 -24 166 -169 109 -154 -23 6 -59 -27 -54 -49 4
-20 -18 -24 -34 -8 -5 5 -38 13 -72 16 -41 5 -62 11 -62 20 0 20 41 44 74 44
47 0 15 17 -36 19 -10 1 -18 8 -18 16 0 8 -4 15 -10 15 -24 0 -7 20 23 28 22
6 33 15 35 30 3 17 -3 22 -32 28 -20 3 -36 11 -36 16 0 6 -7 8 -15 4 -8 -3
-15 -1 -15 4 0 6 -9 10 -19 10 -30 0 -51 11 -51 27 0 7 -6 13 -12 12 -34 -4
-48 2 -48 21 0 13 7 20 19 20 25 0 30 26 13 75 -9 27 -10 41 -3 43 6 2 11 16
11 30 0 45 11 72 30 72 10 0 39 -25 65 -55z m292 -349 c15 -13 38 -26 50 -30
12 -4 39 -24 60 -44 l38 -37 -1 -169 -1 -169 -31 -26 c-17 -14 -32 -35 -34
-46 -2 -14 -12 -21 -35 -23 -26 -3 -35 -10 -50 -42 -10 -22 -25 -40 -32 -40
-12 0 -12 3 -3 12 16 16 15 28 -2 28 -8 0 -16 -7 -18 -15 -2 -10 -9 -5 -20 16
l-18 30 36 15 c19 8 37 21 41 30 3 8 13 12 22 9 11 -3 25 4 38 19 20 22 21 35
19 138 -4 139 -13 197 -37 223 -10 12 -24 35 -30 53 -6 18 -15 32 -20 32 -5 0
-9 7 -9 15 0 8 -4 15 -10 15 -5 0 -7 7 -4 15 8 21 18 19 51 -9z m-274 -1814
c-3 -27 24 -29 67 -7 34 18 40 7 10 -20 -10 -9 -19 -25 -18 -34 2 -32 -2 -52
-11 -46 -5 3 -14 -10 -21 -29 -6 -19 -18 -40 -26 -46 -10 -9 -14 -35 -14 -89
-1 -90 -23 -270 -38 -297 -15 -30 -27 -288 -13 -279 7 4 12 21 11 39 -3 52 -1
67 10 61 11 -7 11 -85 0 -130 -4 -16 -8 -24 -9 -17 -2 27 -19 0 -32 -50 -14
-56 -13 -86 2 -105 7 -7 6 -14 -1 -18 -6 -4 -10 -12 -9 -18 3 -23 -3 -52 -8
-39 -8 21 -31 13 -37 -13 -4 -14 -4 -30 -1 -35 4 -6 2 -10 -4 -10 -5 0 -13
-15 -16 -32 -4 -18 -14 -41 -22 -50 -13 -14 -19 -15 -46 -3 -29 12 -34 11 -53
-6 -19 -18 -23 -18 -57 -4 -20 8 -40 14 -44 13 -3 -2 -13 12 -22 29 -16 33
-38 47 -27 17 3 -9 4 -20 1 -24 -8 -13 -35 0 -35 16 0 8 -9 19 -20 26 -11 7
-20 21 -20 30 0 10 -6 19 -12 19 -7 1 -20 3 -28 4 -8 1 -32 3 -52 4 -25 0 -38
6 -38 15 0 8 -7 17 -17 20 -14 6 -14 9 5 26 27 26 32 25 32 -5 0 -14 5 -25 11
-25 5 0 8 -4 5 -8 -3 -5 1 -9 9 -9 18 0 18 2 3 44 -7 18 -17 33 -23 33 -5 0
-3 5 5 10 11 7 12 12 3 21 -14 14 -36 2 -29 -17 3 -8 0 -11 -9 -8 -7 3 -23 0
-35 -6 -36 -19 -49 3 -22 39 l22 30 -34 3 -35 3 17 36 c9 20 23 34 30 32 14
-5 16 13 2 22 -14 9 -12 42 3 48 9 4 8 8 -3 16 -12 9 -13 14 -2 31 6 11 12 27
12 35 0 11 6 14 25 9 24 -6 25 -4 19 20 -3 15 -2 26 4 26 5 0 12 8 16 18 3 9
15 32 26 51 12 18 19 40 16 48 -4 9 1 17 13 20 11 3 22 14 24 25 3 11 10 17
16 13 6 -3 11 1 11 9 0 18 36 57 44 49 3 -4 6 1 6 11 0 15 -2 15 -30 1 -29
-15 -30 -15 -30 9 0 41 9 53 36 48 19 -3 33 4 59 33 19 20 35 41 35 46 0 5 7
9 15 9 8 0 15 7 15 15 0 8 9 15 20 15 13 0 24 10 30 25 5 14 14 25 20 25 5 0
10 4 10 9 0 12 59 71 71 71 13 0 29 45 29 84 0 19 7 39 15 46 8 7 15 19 15 26
0 9 11 14 28 14 15 0 33 4 40 9 7 4 30 5 50 1 31 -5 37 -10 35 -28z m-1040
-3941 c65 -31 163 -53 412 -92 39 -5 88 -17 110 -24 60 -21 211 -43 380 -56
191 -15 581 -15 705 1 163 21 321 49 333 59 7 5 30 12 52 16 22 4 53 11 68 17
15 6 30 8 33 5 3 -3 -14 -11 -38 -18 -23 -7 -52 -18 -63 -25 -28 -17 -177 -52
-255 -60 -36 -3 -89 -12 -118 -20 -29 -7 -126 -19 -216 -25 -139 -11 -196 -10
-387 4 -123 9 -237 20 -254 26 -16 6 -120 24 -230 42 -110 17 -204 35 -210 39
-5 4 -35 10 -65 14 -143 18 -263 50 -297 80 -7 6 -30 25 -51 41 -22 17 -52 48
-68 70 l-28 40 59 -50 c33 -28 91 -66 128 -84z m183 -253 c-8 -40 -14 -46 -27
-28 -8 12 -9 10 -4 -7 3 -12 1 -24 -6 -28 -8 -6 -7 -10 2 -16 11 -6 11 -11 1
-21 -6 -6 -12 -30 -13 -52 0 -32 -2 -37 -9 -21 -11 25 -12 22 -15 -38 -3 -56
-7 -62 -33 -48 -24 13 -39 -1 -48 -47 -6 -28 -3 -33 22 -43 17 -7 24 -13 16
-16 -22 -8 -65 26 -57 45 4 9 11 34 15 54 4 21 12 43 18 50 5 7 15 29 20 48 7
25 10 29 11 13 2 -48 20 -20 31 49 7 42 20 80 31 92 11 11 19 26 19 33 0 7 7
13 16 13 13 0 15 -7 10 -32z m300 -3 c-11 -8 -41 -15 -67 -15 -38 0 -51 -5
-64 -22 -9 -14 -11 -24 -5 -26 11 -4 3 -50 -13 -69 -5 -7 -19 -13 -31 -13 -19
-1 -19 -2 -3 -11 9 -5 22 -7 27 -4 16 10 21 -17 13 -74 -5 -32 -14 -56 -22
-59 -8 -3 -11 0 -7 7 4 7 1 9 -8 5 -9 -3 -14 -11 -13 -16 1 -6 -4 -13 -12 -16
-10 -3 -12 0 -7 14 4 11 9 60 11 109 5 111 18 175 41 192 11 8 48 13 98 13 73
-1 79 -2 62 -15z m794 -565 c0 -5 -11 -10 -25 -10 -16 0 -25 -6 -25 -16 0 -10
6 -13 19 -9 12 3 21 0 25 -10 3 -9 10 -13 16 -10 5 3 10 -3 10 -14 0 -12 4
-21 10 -21 15 0 31 37 23 57 -6 16 -5 16 10 4 9 -7 17 -22 17 -32 0 -11 4 -19
9 -19 10 0 3 -70 -8 -83 -13 -14 -61 17 -61 41 0 12 -4 22 -9 22 -7 0 -16 -44
-23 -107 -2 -19 -28 -16 -28 3 0 26 -23 10 -26 -18 -1 -17 2 -25 9 -23 7 3 20
-7 30 -20 18 -25 18 -25 -7 -35 -18 -6 -27 -19 -32 -45 -4 -21 -12 -35 -21
-35 -12 0 -14 8 -9 35 6 31 4 35 -14 35 -11 0 -20 -7 -20 -15 0 -8 -7 -15 -15
-15 -30 0 -15 35 22 51 36 16 36 16 10 21 -19 4 -27 1 -27 -8 0 -8 -7 -14 -16
-14 -23 0 -43 -24 -50 -59 -4 -17 -10 -28 -15 -25 -5 3 -6 10 -3 16 7 11 7 74
0 146 -4 39 -3 42 19 42 14 0 26 7 30 19 3 10 13 28 23 39 12 13 17 34 15 61
-2 36 1 41 20 41 12 0 29 5 37 10 20 13 80 13 80 0z m813 -186 c-5 -13 -1 -15
15 -9 13 3 22 2 22 -4 0 -5 3 -17 7 -27 5 -14 2 -16 -19 -11 -15 4 -32 1 -44
-7 -18 -13 -17 -15 18 -32 21 -9 35 -21 32 -25 -2 -4 1 -11 7 -15 8 -4 9 -3 5
5 -7 11 9 10 67 -6 9 -2 32 0 50 5 44 14 168 22 161 11 -3 -5 -24 -9 -47 -9
-24 0 -67 -6 -97 -14 -30 -7 -88 -16 -127 -19 -79 -6 -106 5 -96 42 3 13 -2
23 -16 30 -23 13 -26 28 -11 51 7 12 12 12 22 2 19 -19 27 -14 34 23 3 19 10
32 15 30 4 -3 5 -13 2 -21z"/>
</g>
</svg>
