<svg xmlns="http://www.w3.org/2000/svg" version="1.0" width="2400.000000pt" height="1350.000000pt" viewBox="0 0 2400.000000 1350.000000" preserveAspectRatio="xMidYMid meet">
<metadata>
Created by potrace 1.15, written by Peter Selinger 2001-2017
</metadata>
<g transform="translate(0.000000,1350.000000) scale(0.100000,-0.100000)" fill="#000000" stroke="none" style="&#10;    opacity: 0.5;&#10;">
<path d="M15210 12339 c-241 -13 -279 -21 -267 -53 4 -11 19 -16 46 -16 22 0 42 -4 46 -9 3 -5 19 -12 35 -16 19 -4 39 -20 53 -40 13 -19 36 -44 51 -56 28 -22 56 -74 56 -103 0 -12 -15 -9 -69 14 -39 17 -78 30 -88 30 -20 1 -66 68 -78 115 l-8 30 -11 -28 c-12 -33 -28 -30 -40 9 -18 62 -26 74 -47 74 l-21 0 22 -35 c26 -42 23 -43 -26 -10 -44 30 -56 31 -95 8 -32 -19 -37 -38 -14 -47 12 -4 14 -14 9 -43 -9 -52 -20 -60 -32 -24 -14 41 -28 39 -52 -8 -11 -22 -32 -48 -48 -59 -24 -18 -33 -19 -75 -9 -28 6 -52 18 -58 29 -8 14 -3 21 28 37 21 10 47 28 57 40 19 21 19 21 0 21 -10 0 -35 -10 -54 -21 -76 -46 -97 -82 -64 -110 14 -11 14 -13 -1 -21 -8 -5 -29 -36 -45 -68 -16 -32 -55 -96 -86 -142 -32 -46 -72 -119 -90 -164 -18 -45 -42 -97 -54 -117 -22 -38 -39 -159 -40 -284 0 -34 -7 -88 -15 -120 -8 -31 -15 -94 -15 -139 0 -72 3 -84 25 -108 13 -14 29 -44 35 -65 5 -21 18 -45 27 -52 41 -34 62 -142 38 -192 l-16 -35 46 -44 c26 -23 63 -51 84 -62 43 -22 69 -44 83 -71 9 -15 4 -13 -21 8 -18 15 -45 29 -59 32 -15 3 -42 10 -60 16 -19 6 -36 8 -39 5 -3 -3 0 -25 7 -50 9 -34 22 -52 58 -78 55 -39 138 -82 178 -92 54 -14 59 -27 24 -56 l-33 -27 50 -55 c28 -31 56 -73 63 -94 7 -22 27 -78 46 -126 28 -72 36 -113 49 -240 9 -84 20 -175 25 -201 6 -26 10 -78 10 -115 l-1 -67 -47 -36 c-26 -20 -62 -44 -81 -53 -18 -10 -52 -34 -75 -54 -43 -38 -102 -82 -110 -82 -3 0 -45 -40 -93 -89 -68 -68 -98 -92 -129 -100 -23 -6 -47 -18 -54 -26 -9 -11 -16 -12 -30 -3 -25 16 -64 -10 -89 -60 -20 -38 -115 -120 -164 -143 -15 -7 -33 -22 -41 -35 -10 -14 -30 -25 -55 -29 -22 -4 -45 -13 -51 -20 -9 -11 21 -13 182 -9 106 3 223 9 260 15 79 11 414 11 443 0 15 -6 9 -9 -25 -14 -68 -10 -119 -26 -139 -45 -26 -25 -80 -52 -102 -52 -12 0 -19 -7 -19 -20 0 -13 -7 -20 -20 -20 -11 0 -20 -4 -20 -10 0 -5 -6 -10 -14 -10 -8 0 -16 -9 -18 -21 -2 -15 -17 -27 -52 -40 -26 -10 -56 -25 -66 -34 -11 -10 -23 -14 -29 -11 -6 4 -18 -3 -28 -15 -45 -56 -65 -69 -110 -69 -28 0 -46 -5 -49 -14 -10 -25 -131 -66 -236 -81 -33 -4 -51 -12 -58 -26 -6 -10 -17 -19 -25 -19 -8 0 -19 -9 -25 -20 -8 -15 -21 -20 -48 -20 -46 0 -59 8 -63 39 -3 20 6 32 41 58 25 18 65 50 89 71 25 20 63 44 85 52 38 15 41 18 41 55 l0 40 -59 3 c-34 2 -77 -3 -104 -12 -55 -19 -52 -19 -52 -1 0 19 -5 19 -66 0 -57 -17 -141 -19 -179 -5 -38 15 -128 -15 -120 -40 9 -27 -23 -33 -52 -10 -27 21 -63 27 -63 11 0 -5 -24 -17 -52 -27 -69 -22 -105 -40 -150 -76 -40 -32 -58 -30 -58 5 0 48 -14 50 -66 11 -27 -20 -68 -54 -91 -74 -72 -62 -194 -263 -178 -291 11 -17 -4 -56 -22 -61 -39 -10 -92 -172 -129 -393 -21 -128 -15 -278 21 -475 20 -105 25 -163 22 -210 -6 -68 -43 -190 -57 -190 -5 0 -21 -21 -36 -47 -15 -27 -41 -65 -56 -85 -53 -68 -164 -262 -192 -333 -15 -38 -36 -89 -47 -113 -32 -66 -58 -212 -69 -387 -29 -447 -27 -425 -60 -505 -17 -41 -58 -131 -90 -200 -32 -69 -76 -170 -98 -225 -40 -98 -102 -294 -102 -322 0 -7 -6 -24 -14 -36 -8 -12 -26 -107 -41 -212 -15 -104 -36 -228 -47 -275 -81 -362 -93 -445 -113 -765 -28 -451 -34 -576 -45 -945 -30 -1020 -38 -1166 -75 -1355 -13 -66 -31 -186 -40 -266 -16 -149 -14 -189 16 -331 l11 -48 619 0 619 0 0 58 c0 82 -17 167 -45 232 -31 71 -51 150 -71 273 -9 54 -24 124 -35 154 -10 31 -19 66 -19 77 0 28 -46 126 -60 126 -14 0 -13 -26 2 -50 28 -45 -31 -71 -75 -32 -21 18 -14 30 8 12 16 -14 65 -6 65 11 0 6 -9 8 -20 4 -23 -7 -25 -2 -8 25 10 15 10 22 0 32 -10 10 -14 10 -21 -1 -14 -22 -38 -6 -72 49 -17 27 -35 50 -39 50 -5 0 -21 11 -36 25 -15 14 -32 25 -39 25 -7 0 -15 14 -18 30 -7 33 -30 40 -47 13 -9 -14 -10 -5 -7 41 3 42 9 63 22 72 16 12 17 23 11 94 -4 52 -3 80 4 80 5 0 10 -8 10 -18 0 -28 30 -84 43 -79 7 2 13 14 15 28 6 46 61 204 86 250 27 48 100 259 136 394 22 86 66 185 81 185 5 0 9 8 9 18 0 27 159 331 193 371 8 9 29 45 47 81 18 36 47 90 66 121 19 31 34 62 34 69 0 18 56 130 80 160 14 18 25 62 40 163 24 165 25 291 5 392 -12 58 -13 80 -4 96 9 17 13 19 20 8 5 -8 9 -27 9 -42 0 -42 22 -28 38 24 7 24 22 141 32 259 11 118 24 247 30 286 8 49 8 79 0 98 -5 15 -10 41 -10 59 0 29 1 30 15 11 14 -18 14 -17 15 12 0 18 10 43 25 60 14 16 43 64 65 106 22 42 52 91 67 109 15 17 34 44 42 59 9 16 35 56 59 89 107 152 140 247 202 584 12 64 26 117 30 117 13 0 48 -48 107 -148 30 -51 61 -96 69 -99 8 -3 14 -11 14 -17 0 -7 13 -30 30 -52 16 -21 30 -44 30 -50 0 -6 7 -18 17 -25 9 -8 25 -34 36 -58 18 -41 19 -83 27 -745 4 -385 11 -710 16 -721 7 -19 7 -19 -13 -3 -27 24 -50 22 -67 -5 -28 -44 -66 -291 -66 -437 0 -102 -9 -150 -27 -150 -10 0 -14 -7 -10 -20 3 -11 1 -23 -4 -26 -17 -10 -10 -44 9 -44 24 0 42 -19 42 -44 0 -17 -8 -12 -45 24 -32 31 -45 52 -45 72 0 17 -5 28 -13 28 -22 0 -95 -73 -102 -102 -8 -30 30 -128 50 -128 7 0 15 -7 19 -15 10 -28 35 -16 42 20 10 53 3 57 148 -94 33 -34 64 -60 70 -58 28 9 10 37 -75 118 -52 49 -91 89 -86 89 4 0 36 -27 71 -59 35 -33 83 -72 107 -87 24 -15 47 -32 51 -38 4 -6 8 -39 8 -73 l0 -62 -80 -73 c-82 -74 -99 -105 -100 -173 -1 -27 -2 -28 -14 -12 -20 25 -26 21 -26 -19 0 -30 4 -37 33 -49 47 -19 103 -28 134 -20 30 7 177 146 199 186 7 15 33 42 56 60 l43 34 -50 -61 c-28 -34 -69 -86 -92 -115 -123 -156 -126 -159 -153 -159 -15 0 -60 11 -101 25 -95 33 -190 57 -196 51 -3 -2 15 -24 39 -49 23 -24 49 -51 56 -60 7 -10 24 -17 37 -17 29 0 32 8 8 26 -17 12 -16 13 5 14 16 0 26 -7 29 -21 6 -21 22 -22 82 -3 15 4 22 3 18 -3 -9 -14 49 -67 63 -58 7 4 10 18 7 30 -3 19 -1 22 12 14 9 -5 33 -15 54 -23 20 -8 37 -20 37 -25 0 -6 11 -11 24 -11 20 0 28 9 42 46 9 25 26 51 36 59 17 11 18 16 8 36 l-12 22 84 -5 c79 -5 149 -26 120 -36 -22 -7 -13 -37 18 -54 16 -9 36 -33 44 -52 8 -20 19 -36 25 -36 5 0 23 -12 40 -26 17 -14 38 -23 46 -20 20 7 20 89 1 105 -8 7 -22 33 -30 59 -9 25 -26 56 -38 69 l-21 23 23 25 c13 14 24 35 26 47 1 13 3 26 3 31 1 11 31 8 72 -6 46 -16 69 -35 69 -56 0 -9 16 -29 35 -44 19 -15 35 -33 35 -39 0 -19 49 -77 78 -90 15 -7 42 -36 59 -63 35 -52 161 -167 178 -162 13 5 22 75 14 108 -6 23 -4 26 12 22 16 -5 19 0 19 30 0 19 -7 40 -15 47 -18 15 -60 87 -70 120 l-7 25 26 -24 c14 -14 26 -33 26 -43 0 -11 7 -18 19 -18 11 0 23 -9 26 -20 17 -53 54 14 65 114 7 71 7 70 9 -36 0 -60 4 -108 8 -108 3 0 32 25 64 55 32 30 62 55 67 55 13 0 20 -105 10 -150 -15 -72 -32 -313 -51 -735 0 -11 3 -39 7 -62 6 -35 4 -45 -13 -62 -27 -27 -26 -35 5 -58 31 -23 27 -57 -8 -66 -29 -8 -34 -3 -57 48 -22 50 -47 62 -36 17 15 -61 48 -114 78 -125 28 -9 29 -11 10 -18 -24 -9 -29 -51 -38 -344 -6 -210 0 -249 37 -253 28 -3 78 -53 78 -77 0 -7 7 -26 15 -42 8 -15 17 -41 20 -57 9 -44 57 -86 99 -86 49 0 54 17 15 50 -19 15 -31 31 -26 36 4 4 7 2 7 -4 0 -13 66 -36 80 -27 5 3 10 17 10 31 0 17 8 27 27 35 23 8 30 6 49 -14 13 -14 20 -27 17 -30 -11 -12 10 -48 38 -62 16 -9 29 -23 29 -31 0 -23 24 -11 28 14 5 30 18 28 34 -5 18 -38 50 -41 77 -7 11 15 21 35 21 45 0 21 15 25 25 8 4 -5 -1 -19 -10 -29 -34 -38 -14 -50 85 -50 49 0 90 4 90 9 0 21 53 71 75 71 27 0 42 17 28 31 -7 7 -45 6 -108 0 -94 -10 -99 -9 -113 10 -12 17 -21 20 -48 14 -38 -7 -40 -2 -19 35 21 37 18 48 -11 42 -25 -5 -26 -3 -19 24 4 16 7 43 6 60 -1 19 6 37 19 49 18 16 23 17 45 5 23 -12 27 -12 41 8 8 12 24 22 35 22 10 0 19 5 19 10 0 6 -4 10 -10 10 -16 0 -12 20 5 27 9 3 24 -2 34 -11 27 -25 38 -19 49 27 14 54 48 86 103 98 37 9 47 7 72 -12 24 -18 31 -19 42 -8 7 8 15 25 17 39 2 19 -4 28 -24 38 -21 10 -28 20 -28 42 0 24 -8 35 -40 57 -23 14 -58 29 -78 32 -31 5 -38 11 -40 33 -2 21 -13 32 -40 45 -20 9 -41 23 -47 30 -19 24 -232 104 -259 97 -16 -4 -26 -2 -26 5 0 6 -9 11 -19 11 -13 0 -21 8 -23 22 -2 16 -12 24 -32 28 -16 3 -32 12 -34 20 -5 13 -3 13 12 1 9 -8 19 -12 22 -9 9 10 -16 58 -31 58 -18 0 -22 75 -4 86 15 9 60 -48 48 -60 -17 -18 -9 -52 21 -93 23 -31 39 -42 67 -46 22 -4 40 -2 44 4 11 18 -3 51 -23 56 -10 3 -18 13 -18 23 0 13 6 17 20 13 13 -3 20 0 20 8 0 8 9 32 21 53 17 32 20 49 14 93 -7 54 -4 58 33 54 16 -2 15 22 -3 66 -25 60 -25 59 95 59 122 -1 129 -6 79 -55 -25 -25 -30 -37 -27 -68 2 -32 6 -37 23 -35 11 2 41 7 68 11 54 9 64 16 69 51 2 19 15 31 51 48 48 23 67 22 67 -3 0 -9 -6 -12 -15 -9 -10 4 -15 0 -15 -15 0 -12 7 -24 15 -27 8 -4 15 -12 15 -20 0 -8 8 -14 18 -14 10 0 27 -9 38 -20 10 -11 28 -29 38 -40 32 -33 49 -26 44 20 -4 45 8 54 18 13 13 -62 39 -123 51 -123 16 0 16 8 1 65 -9 35 -9 48 0 57 9 9 12 9 12 0 0 -7 5 -12 11 -12 15 0 148 131 155 153 3 9 14 17 24 17 24 0 53 29 46 46 -3 8 -2 14 3 14 5 0 11 -9 14 -21 9 -32 40 -20 53 21 l12 35 105 11 c58 7 121 17 141 23 20 6 51 15 69 21 18 6 56 10 83 10 55 0 122 20 134 40 5 9 36 15 86 17 75 4 222 28 232 38 3 3 0 16 -6 30 -19 42 -15 61 7 34 28 -34 48 -14 35 33 l-10 33 -73 -1 c-57 -2 -79 -6 -102 -23 -18 -14 -30 -17 -35 -10 -3 6 -16 8 -28 4 -11 -3 -79 -13 -151 -20 -238 -26 -350 -43 -384 -60 -20 -11 -36 -14 -40 -8 -3 6 -38 13 -77 16 -38 4 -91 13 -118 21 -92 28 -197 132 -227 225 -19 61 -61 151 -71 151 -5 0 -4 8 1 19 7 12 7 31 0 55 -6 21 -9 42 -7 48 4 11 18 -20 73 -167 61 -164 86 -200 167 -241 26 -13 48 -29 48 -34 0 -23 91 -34 285 -34 214 1 306 10 480 49 61 13 179 39 264 57 119 25 161 38 184 57 29 24 29 26 25 103 -5 86 -20 116 -43 85 -7 -10 -16 -35 -20 -55 -16 -89 -24 -109 -57 -125 -31 -16 -299 -77 -336 -77 -14 0 -17 11 -17 74 0 69 -2 76 -27 96 -33 25 -34 36 -10 63 17 19 16 20 -20 13 -24 -4 -44 -2 -57 6 -19 11 -19 14 -4 30 20 23 2 48 -36 49 -24 0 -23 1 9 12 31 11 35 17 38 50 2 21 -2 45 -8 52 -9 11 -5 17 19 30 18 9 31 11 31 5 0 -16 96 -12 110 5 7 8 25 15 40 15 33 0 43 9 29 27 -9 11 0 13 50 13 56 0 76 -10 51 -25 -34 -21 10 -109 71 -140 38 -20 89 -20 89 0 0 23 14 18 45 -17 37 -42 42 -23 10 37 -14 26 -25 61 -25 77 0 16 -9 48 -19 71 -40 87 -52 279 -25 394 35 150 1 343 -97 546 -21 44 -39 91 -39 103 0 12 -19 41 -41 64 l-42 43 12 186 c6 102 16 222 22 266 5 44 17 145 25 225 18 176 44 306 83 426 16 49 32 109 36 134 6 38 17 54 66 101 33 31 59 61 59 67 0 6 69 93 153 194 208 249 245 299 296 396 23 46 47 80 51 75 4 -4 17 -35 29 -68 31 -82 117 -249 157 -301 18 -24 43 -62 55 -86 26 -51 147 -208 160 -208 5 0 14 -11 20 -24 11 -22 105 -106 191 -168 41 -30 62 -65 89 -148 10 -30 27 -80 38 -111 41 -114 72 -355 81 -625 4 -138 12 -259 18 -270 5 -10 15 -50 20 -89 14 -90 53 -205 108 -318 24 -50 44 -96 44 -102 0 -7 12 -30 26 -51 15 -21 38 -66 52 -99 15 -33 41 -86 60 -118 54 -93 131 -272 182 -422 26 -77 52 -153 58 -170 6 -16 23 -76 37 -132 15 -56 38 -125 52 -155 36 -77 74 -231 80 -323 4 -62 -1 -110 -21 -213 -14 -72 -26 -143 -26 -156 0 -12 -10 -37 -22 -53 -78 -105 -93 -123 -96 -114 -2 6 -8 11 -13 11 -14 0 -60 -79 -81 -138 -10 -30 -25 -64 -33 -76 -7 -11 -16 -39 -20 -61 -3 -22 -13 -71 -22 -109 -19 -81 -13 -261 11 -371 8 -38 18 -121 22 -182 l7 -113 183 0 184 0 0 66 0 66 33 -7 c48 -11 50 -13 44 -71 l-6 -54 414 0 414 0 16 52 c19 66 19 67 -6 92 -11 12 -34 40 -50 64 -35 51 -59 52 -71 3 l-9 -33 -23 21 c-12 11 -31 21 -43 21 -11 0 -37 12 -58 26 l-38 25 -26 -31 c-26 -31 -26 -32 -69 -18 -49 15 -116 67 -136 107 -8 14 -64 77 -126 140 -61 63 -123 134 -136 157 -14 23 -45 59 -70 79 -24 20 -42 41 -39 45 3 5 -1 22 -9 37 -13 27 -19 59 -17 95 1 23 40 58 63 58 20 0 23 12 8 41 -11 20 3 28 15 9 3 -5 14 -10 25 -10 15 0 17 6 13 40 -4 27 -2 40 6 40 6 0 16 11 21 24 5 14 25 32 44 41 25 12 36 24 36 39 0 37 12 66 26 66 8 0 14 9 14 19 0 28 17 35 42 17 33 -24 38 -20 38 28 0 37 4 45 23 50 66 18 83 10 192 -91 63 -58 108 -108 111 -123 12 -54 19 -52 22 7 4 75 -15 126 -58 151 -35 22 -140 135 -140 151 0 6 -6 11 -13 11 -7 0 -29 9 -50 20 -48 26 -67 25 -67 -1 0 -12 -5 -19 -12 -16 -7 2 -12 13 -10 24 1 11 -10 30 -28 46 -34 31 -41 54 -11 37 11 -5 23 -15 26 -20 3 -6 15 -10 26 -10 15 0 20 6 17 22 -2 19 -13 25 -53 33 -43 10 -53 16 -72 50 -12 21 -27 68 -34 104 -6 36 -18 84 -26 105 -13 38 -7 55 19 56 3 0 15 28 27 63 l20 62 -25 20 c-24 19 -26 55 -3 55 5 0 9 5 9 11 0 6 9 22 20 36 l19 25 21 -36 c21 -35 51 -53 70 -41 17 10 11 63 -11 106 -11 22 -23 63 -26 90 -3 29 -16 64 -29 82 -13 18 -39 64 -57 102 -19 39 -45 84 -58 100 -29 34 -119 179 -119 190 0 7 53 0 93 -11 11 -3 20 1 24 13 9 23 23 33 50 33 12 0 26 8 31 17 5 9 25 24 43 32 19 9 33 21 33 26 0 6 -26 24 -56 40 -64 35 -128 82 -128 95 0 4 23 32 51 61 46 48 51 57 46 89 -3 22 1 43 10 56 8 11 13 41 13 74 -1 30 0 62 0 70 1 8 -1 30 -6 49 l-7 33 27 -17 c22 -15 26 -15 26 -2 0 8 -7 20 -15 27 -9 7 -15 29 -15 50 0 21 -8 53 -17 72 -34 68 -34 68 -18 68 9 0 15 9 15 21 0 15 -5 19 -15 15 -12 -4 -14 0 -10 17 4 16 -3 34 -24 61 -48 60 -37 63 32 11 79 -60 92 -42 22 29 -47 49 -53 62 -33 68 9 3 8 9 -5 22 -9 10 -17 22 -17 28 0 6 -7 20 -17 30 -15 17 -15 18 8 18 24 0 24 2 19 63 -3 35 -14 76 -25 95 -16 27 -18 36 -7 53 11 18 8 26 -29 70 -31 37 -51 52 -84 60 -36 9 -45 16 -50 39 -3 15 -20 40 -36 56 -17 16 -35 37 -40 47 -9 16 -8 17 10 5 29 -18 38 -2 13 25 -12 13 -22 29 -22 35 0 7 -4 12 -10 12 -5 0 -10 17 -10 38 0 20 -11 60 -24 87 l-25 50 24 3 c21 3 23 6 15 28 -6 14 -10 54 -10 88 0 67 -20 121 -52 144 -24 18 -23 27 7 40 21 10 24 15 16 30 -7 13 -7 22 0 29 6 6 13 35 16 65 l5 55 -38 20 c-22 11 -51 23 -66 27 -18 4 -25 11 -22 20 3 9 -3 17 -18 21 -56 16 -80 30 -89 52 -4 12 -13 23 -18 23 -13 0 -24 -34 -12 -38 15 -5 14 -32 -1 -32 -6 0 -21 -9 -33 -20 l-22 -21 -63 48 c-35 26 -78 58 -96 70 -18 12 -41 34 -51 48 -10 15 -29 38 -42 53 -12 15 -32 44 -42 64 -27 52 -72 102 -150 164 -54 43 -77 71 -117 141 -52 93 -106 225 -100 244 2 7 16 -21 31 -61 31 -85 106 -202 145 -227 15 -10 46 -32 70 -50 47 -36 72 -42 72 -18 0 8 5 15 10 15 13 0 13 -6 -2 -31 -11 -17 -10 -22 5 -30 9 -6 17 -17 17 -24 0 -24 26 -17 41 12 10 20 11 27 2 30 -7 2 -9 11 -6 18 2 8 -5 26 -16 41 -12 15 -21 36 -21 48 0 27 -23 60 -82 118 -27 25 -48 49 -48 53 0 5 -20 29 -44 55 -35 37 -43 52 -39 73 4 19 0 29 -11 33 -10 4 -16 18 -16 36 0 17 -10 38 -24 53 -19 19 -24 34 -23 68 2 34 -4 52 -26 80 -15 19 -27 40 -27 46 0 15 -93 91 -113 91 -10 0 -20 -7 -23 -15 -3 -8 -14 -17 -25 -20 -29 -9 -24 -33 34 -151 69 -144 68 -141 96 -154 17 -8 21 -14 13 -22 -21 -21 -43 2 -82 84 -22 46 -49 97 -61 115 -11 17 -41 85 -66 150 -43 112 -45 124 -50 246 l-6 127 143 0 c135 0 142 -1 147 -21 5 -17 10 -19 32 -12 14 4 60 6 101 5 68 -2 81 0 133 29 32 17 61 39 64 48 15 49 47 129 59 153 10 19 12 33 5 45 -17 32 -29 107 -24 152 3 24 1 60 -5 80 -6 20 -15 55 -21 78 -15 57 -54 101 -96 109 -19 3 -39 12 -46 20 -6 8 -17 14 -24 14 -8 0 -44 17 -82 37 -37 20 -93 49 -124 64 -60 29 -112 94 -89 109 16 10 -2 45 -34 65 -34 22 -113 2 -129 -32 l-10 -23 -39 40 c-21 22 -50 43 -64 46 -43 11 -140 -1 -170 -21 l-29 -18 28 -10 c31 -10 31 -13 13 -46 -11 -20 -11 -30 -1 -55 7 -17 16 -53 20 -81 3 -27 9 -62 11 -77 3 -16 1 -28 -4 -28 -5 0 -12 13 -15 29 -8 37 -63 101 -88 101 -17 0 -19 -8 -19 -67 l-1 -68 -17 37 c-22 48 -70 87 -83 67 -5 -8 -7 -31 -3 -51 5 -33 4 -36 -15 -31 -28 7 -27 -8 5 -132 29 -113 33 -197 16 -335 -12 -101 -54 -296 -66 -308 -4 -4 -16 3 -26 16 -12 14 -29 22 -49 22 -16 0 -33 5 -36 10 -4 6 -38 8 -85 5 -75 -4 -79 -3 -86 18 -13 43 -40 48 -56 10 l-12 -28 -4 33 -3 32 -84 0 c-95 0 -129 10 -157 45 -11 14 -26 25 -34 25 -8 0 -32 9 -54 20 -22 11 -62 25 -91 31 -28 6 -57 19 -65 28 -8 9 -27 31 -42 50 -23 27 -36 34 -67 35 -35 1 -40 4 -45 31 -8 38 -51 85 -78 85 -12 0 -25 8 -31 17 -9 16 -11 16 -43 1 -18 -10 -52 -19 -76 -22 -36 -3 -41 -2 -32 9 18 22 2 35 -41 35 -44 0 -50 -11 -17 -34 12 -9 18 -16 12 -16 -15 0 -40 31 -49 60 -4 14 -25 45 -46 69 -22 24 -39 52 -39 62 0 10 -11 26 -25 35 -14 9 -25 21 -25 27 0 5 -22 32 -50 58 -34 33 -50 56 -50 73 0 21 -6 26 -35 32 -43 8 -45 22 -5 37 29 11 41 27 20 27 -5 0 -7 6 -4 14 3 7 -5 29 -16 49 l-22 37 26 11 c14 7 23 16 20 20 -8 13 -52 11 -60 -2 -3 -6 -19 16 -36 50 -21 44 -35 61 -49 61 -15 0 -19 7 -19 30 0 44 -37 113 -56 106 -25 -10 -110 24 -140 55 -15 16 -36 29 -47 29 -13 0 -17 5 -13 18 4 13 -3 25 -24 40 -46 35 -40 58 18 65 132 17 201 19 237 7 32 -11 39 -10 46 3 7 11 19 14 48 10 40 -6 67 12 34 23 -35 11 -48 21 -54 45 l-6 24 -11 -27 c-16 -39 -28 -41 -52 -8 -16 23 -29 30 -53 30 -40 0 -132 42 -140 64 -4 10 -18 16 -37 16 -16 0 -30 5 -30 10 0 13 77 49 104 50 11 0 27 6 35 14 9 8 76 33 149 56 128 40 159 61 111 73 -16 4 -19 11 -14 27 7 22 -25 103 -46 115 -14 10 -59 105 -59 128 0 14 9 17 44 17 26 0 48 6 56 15 7 8 21 15 31 15 11 0 19 7 19 16 0 10 -6 14 -17 10 -30 -9 -88 -10 -101 -2 -18 11 -15 31 13 86 18 35 25 66 25 104 0 30 5 58 10 61 18 11 10 37 -22 74 l-32 36 27 3 c33 4 37 34 6 56 -12 8 -25 32 -30 53 -4 21 -12 56 -18 78 -15 58 -13 101 5 120 14 13 14 20 5 38 -14 27 -19 168 -7 225 12 59 -5 54 -42 -12 -43 -74 -58 -78 -67 -14 -4 28 -18 66 -31 86 -29 42 -29 48 -5 87 15 25 19 59 24 185 5 140 3 159 -15 202 -22 51 -126 148 -158 148 -10 0 -32 12 -49 26 -42 35 -44 97 -5 143 14 17 30 28 36 25 13 -8 48 26 48 48 0 14 8 18 40 18 54 0 80 27 80 83 0 58 -18 88 -68 115 -23 13 -49 37 -57 52 -15 29 -34 36 -115 42 -34 3 -34 3 -45 68 -6 36 -19 80 -29 98 -9 19 -16 35 -14 36 2 1 25 9 53 17 42 13 51 19 55 43 l5 29 31 -27 c18 -14 39 -26 47 -26 19 0 77 -57 77 -76 0 -20 16 -17 38 7 18 19 20 19 27 2 4 -10 10 -43 15 -74 4 -31 22 -88 39 -127 17 -39 47 -129 66 -199 19 -70 42 -145 50 -166 11 -28 15 -81 15 -215 0 -194 8 -312 21 -312 5 0 9 12 10 28 l1 27 9 -30 c5 -16 11 -57 15 -90 9 -85 20 -99 33 -45 19 74 41 127 60 144 9 9 40 20 67 25 72 14 104 28 104 47 0 11 -6 15 -20 11 -35 -9 -22 7 27 33 74 39 103 68 103 101 0 36 -7 36 -55 4 -28 -20 -108 -45 -140 -45 -2 0 -6 -11 -9 -25 -11 -43 -46 -51 -110 -25 -53 21 -69 41 -45 56 6 3 15 1 19 -6 10 -16 44 -9 48 11 2 12 -8 18 -38 23 -52 8 -43 26 10 19 38 -5 40 -5 40 22 0 27 1 27 18 12 26 -24 62 -22 62 3 0 11 -7 20 -15 20 -22 0 -18 12 15 44 55 51 63 78 68 236 l5 145 -46 43 c-26 23 -53 42 -62 42 -8 0 -15 4 -15 9 0 4 11 6 25 3 30 -5 31 2 5 28 -15 15 -20 33 -19 68 0 43 1 45 12 22 6 -14 16 -28 22 -33 27 -20 105 28 105 65 0 25 -12 23 -40 -7 l-24 -26 -9 23 c-10 27 -23 266 -14 257 4 -3 10 -29 14 -59 5 -31 14 -55 22 -58 12 -4 13 7 8 63 -4 37 -14 79 -22 92 -15 23 -15 23 5 11 27 -17 52 -1 62 39 7 25 18 35 63 53 89 36 68 60 -52 60 -34 0 -65 -5 -68 -10 -7 -11 -32 6 -127 88 -33 28 -64 52 -69 52 -19 0 -8 -22 34 -68 l42 -47 -63 54 c-34 29 -82 76 -105 103 -109 129 -151 168 -215 200 -71 36 -96 63 -73 77 16 10 6 31 -14 31 -25 0 -85 -33 -85 -47 0 -7 22 -24 49 -37 26 -14 62 -36 79 -50 16 -15 35 -26 40 -26 6 0 30 -25 54 -55 23 -30 46 -55 49 -55 8 0 52 -74 63 -105 7 -18 5 -18 -17 3 -13 12 -28 22 -34 22 -6 0 -13 6 -16 13 -3 9 -9 9 -25 0 -19 -12 -22 -10 -27 21 -4 18 -21 51 -38 71 -40 49 -139 122 -177 130 -17 4 -30 11 -30 16 0 5 -9 9 -20 9 -13 0 -24 10 -30 26 -14 36 -13 44 10 44 11 0 20 5 20 10 0 19 -32 23 -68 10 -32 -11 -36 -11 -52 10 -18 24 -28 24 -110 5 -25 -6 51 34 100 52 l25 10 -25 14 c-17 10 -60 14 -140 14 l-115 0 0 30 c0 36 -2 36 -215 24z m600 -372 c72 -37 169 -107 148 -107 -9 0 -51 5 -93 11 -42 6 -80 8 -83 5 -3 -4 3 -16 14 -29 52 -58 39 -55 -21 7 -50 51 -64 71 -54 77 14 8 15 14 18 52 0 10 4 17 9 15 4 -2 32 -16 62 -31z m-1261 -1124 c0 -39 6 -84 12 -100 7 -16 10 -83 10 -159 -1 -73 5 -183 13 -245 21 -163 29 -255 21 -247 -4 4 -14 62 -21 130 -17 144 -48 299 -66 331 -18 31 -17 283 2 362 13 56 14 58 21 30 3 -16 7 -62 8 -102z m861 -27 c51 -53 70 -66 99 -68 33 -3 39 -8 63 -58 31 -62 36 -100 13 -100 -8 0 -15 -9 -15 -19 0 -11 -5 -21 -11 -23 -7 -2 -8 -17 -4 -39 5 -28 15 -41 43 -57 42 -24 79 -60 116 -116 33 -49 33 -53 -3 -61 -34 -7 -49 -22 -55 -56 -3 -13 -5 -25 -5 -26 -1 -1 -16 4 -33 12 -18 7 -59 16 -91 20 -31 4 -60 12 -64 18 -10 16 32 44 77 51 48 8 45 23 -8 32 -20 3 -45 16 -54 27 -16 21 -15 22 20 42 26 15 37 28 37 44 0 19 -10 27 -55 43 -30 11 -59 24 -64 29 -6 5 -22 9 -38 9 -18 0 -33 8 -44 25 -9 14 -24 25 -33 24 -31 -3 -41 1 -41 17 0 9 9 18 20 21 27 7 33 34 20 84 -9 31 -8 55 0 93 6 28 13 61 16 74 2 12 10 22 17 22 7 0 41 -29 77 -64z m389 -448 c29 -18 75 -51 104 -74 l52 -40 3 -216 2 -216 -29 -21 c-16 -11 -36 -36 -45 -55 -12 -26 -24 -35 -52 -40 -26 -5 -40 -16 -52 -37 -9 -17 -22 -38 -29 -47 -10 -15 -11 -14 -6 7 6 22 3 23 -21 19 -20 -4 -31 0 -41 15 -14 20 -13 22 22 39 20 10 44 25 53 33 9 8 24 15 34 15 9 0 28 11 41 25 24 23 25 29 25 157 0 190 -10 241 -62 332 -23 43 -47 86 -53 97 -5 10 -13 19 -18 19 -4 0 -5 5 -2 10 9 15 19 13 74 -22z m-367 -2234 c4 -3 8 -14 8 -25 0 -28 24 -33 71 -15 l41 17 -21 -27 c-12 -15 -21 -40 -21 -57 0 -16 -6 -35 -14 -41 -8 -6 -28 -38 -45 -71 -26 -50 -31 -71 -31 -130 0 -92 -27 -306 -46 -370 -19 -64 -32 -365 -16 -365 13 0 20 24 25 85 2 25 4 16 5 -26 2 -54 -2 -71 -19 -93 -40 -51 -62 -164 -39 -206 7 -13 7 -21 0 -25 -5 -3 -10 -19 -10 -34 0 -22 -4 -27 -22 -27 -15 1 -24 -7 -29 -24 -50 -174 -53 -178 -108 -161 -37 11 -44 10 -70 -8 -27 -19 -30 -19 -79 -4 -40 13 -54 24 -72 55 -26 46 -40 49 -40 8 0 -35 -17 -40 -29 -7 -5 13 -17 29 -26 37 -9 8 -21 24 -25 36 -9 23 -45 34 -109 34 -28 0 -43 7 -60 26 l-23 26 21 21 21 21 0 -24 c1 -31 22 -60 44 -60 20 0 20 11 0 58 -9 20 -17 48 -18 62 -1 32 -46 43 -46 12 0 -15 -9 -21 -41 -26 -23 -4 -44 -5 -46 -2 -3 3 4 20 16 39 26 43 26 47 -1 47 -43 0 -52 14 -34 49 9 17 23 31 31 31 18 0 20 31 3 48 -9 9 -9 17 2 36 10 19 10 29 1 39 -8 11 -8 22 4 49 12 30 18 35 40 31 21 -5 25 -2 25 19 0 14 13 49 30 79 16 30 35 70 41 89 7 19 28 50 48 69 20 19 40 44 46 55 6 12 20 25 33 31 12 5 22 18 22 29 0 19 -20 19 -62 1 -13 -5 -18 -2 -18 10 0 32 20 55 49 55 22 0 41 13 79 55 28 30 55 55 60 55 5 0 12 9 15 20 3 12 14 20 26 20 11 0 26 10 32 23 15 26 53 71 93 106 16 14 37 33 46 42 10 10 21 41 25 70 11 82 37 121 87 135 40 11 110 10 130 -2z m-1392 -4891 c119 -80 197 -104 490 -153 102 -17 217 -40 257 -51 210 -58 529 -82 1008 -77 343 5 382 7 532 32 89 15 199 38 244 51 104 31 120 31 47 -1 -52 -22 -138 -41 -412 -89 -150 -27 -353 -45 -502 -45 -169 0 -497 24 -609 45 -44 9 -179 33 -300 55 -443 79 -604 113 -660 140 -23 11 -76 53 -117 93 -41 39 -63 63 -49 51 14 -12 46 -35 71 -51z m3282 -633 c31 -17 58 -12 58 11 0 27 7 24 71 -36 l54 -50 -5 -60 -5 -60 -8 47 c-5 26 -12 50 -17 53 -6 3 -31 -10 -56 -29 l-47 -36 -101 1 c-56 1 -93 3 -83 6 20 5 21 11 5 46 -13 26 -28 34 -41 20 -4 -4 -30 -7 -57 -7 -85 -2 -92 -42 -10 -64 l35 -9 -53 -11 c-66 -15 -137 -15 -163 -2 -11 6 -19 21 -19 35 0 50 -27 40 -59 -22 -22 -45 -53 -68 -77 -59 -16 6 -19 42 -4 51 15 10 12 35 -5 35 -18 0 -20 31 -3 48 19 19 49 14 55 -8 3 -11 13 -20 22 -20 9 0 22 9 29 20 7 11 21 20 32 20 22 0 27 15 8 23 -8 4 -7 6 3 6 9 1 41 18 70 38 52 36 58 37 152 41 53 2 97 8 97 12 0 8 90 -21 122 -40z m-1602 -450 c-8 -5 -23 -10 -32 -10 -11 0 -18 -8 -18 -20 0 -13 7 -20 20 -20 27 0 70 -29 70 -46 0 -8 9 -14 20 -14 13 0 22 9 26 28 10 45 11 48 19 27 4 -11 11 -30 17 -42 12 -24 3 -89 -13 -99 -15 -9 -59 24 -59 46 0 24 -20 37 -30 19 -5 -7 -12 -39 -15 -71 -7 -61 -23 -85 -32 -49 -6 24 -14 26 -31 9 -17 -17 -15 -68 1 -68 8 0 22 -9 32 -20 17 -19 17 -20 -14 -49 -17 -16 -31 -35 -31 -43 0 -8 -7 -23 -15 -34 -14 -18 -15 -16 -13 26 3 40 0 45 -19 48 -14 2 -26 -4 -33 -18 -6 -11 -15 -18 -21 -14 -13 8 7 31 43 50 37 19 36 34 -2 34 -16 0 -30 -4 -30 -9 0 -5 -14 -14 -30 -20 -20 -6 -36 -22 -45 -43 l-14 -33 -1 55 c0 30 -3 78 -6 106 -6 49 -5 51 20 58 39 10 86 89 86 147 0 45 0 45 48 61 55 18 126 23 102 8z m418 -87 c6 -15 12 -36 12 -48 0 -21 17 -45 32 -45 4 0 8 15 9 33 0 27 3 24 15 -22 8 -30 19 -61 25 -68 9 -10 2 -9 -25 2 -36 15 -56 13 -56 -6 0 -5 7 -9 15 -9 18 0 18 1 4 -38 -6 -17 -17 -33 -24 -36 -14 -5 -18 3 -30 63 -5 21 -14 35 -26 38 -22 6 -24 28 -4 63 8 14 14 44 15 67 0 48 17 50 38 6z m635 -161 c16 2 23 -3 25 -19 3 -20 -1 -23 -30 -23 -32 0 -58 -14 -58 -32 0 -4 18 -17 40 -28 22 -11 40 -27 40 -35 0 -16 16 -21 22 -6 2 5 30 3 63 -3 l60 -13 -49 -6 c-76 -11 -161 -8 -174 5 -7 7 -12 24 -12 40 0 17 -7 31 -20 38 -21 11 -27 45 -10 55 6 4 17 1 25 -5 19 -16 32 -6 41 33 5 22 9 26 12 14 2 -12 11 -17 25 -15z" style="&#10;    opacity: 0.5;&#10;"/>
</g>
</svg>