<svg xmlns="http://www.w3.org/2000/svg" version="1.0" width="768.000000pt" height="1024.000000pt" viewBox="0 0 768.000000 1024.000000" preserveAspectRatio="xMidYMid meet">
<metadata>
Created by potrace 1.15, written by Peter Selinger 2001-2017
</metadata>
<g transform="translate(0.000000,1024.000000) scale(0.100000,-0.100000)" fill="#000000" stroke="none" style="&#10;">
<path d="M5301 7812 c-28 -4 -72 -30 -84 -49 -4 -7 -18 -13 -31 -13 -13 0 -30 -7 -37 -16 -7 -9 -24 -20 -37 -25 -18 -7 -23 -15 -21 -37 2 -15 -4 -38 -13 -51 -15 -22 -16 -27 -2 -54 19 -37 17 -45 -41 -182 -55 -128 -64 -175 -41 -210 22 -34 21 -36 -24 -91 -22 -27 -40 -59 -40 -71 0 -12 14 -38 31 -57 28 -33 30 -38 20 -69 -6 -19 -11 -54 -10 -78 2 -69 -6 -142 -19 -166 -28 -52 2 -134 61 -164 34 -18 55 -20 137 -18 105 4 119 -1 146 -52 8 -16 14 -46 14 -67 0 -36 -3 -41 -37 -57 -21 -10 -42 -24 -46 -31 -4 -8 -19 -14 -32 -14 -22 0 -90 -20 -185 -55 -39 -14 -97 -46 -254 -140 -32 -19 -46 -20 -322 -15 -278 5 -290 4 -313 -15 l-24 -20 12 22 c6 12 16 25 21 28 6 3 10 11 10 16 0 24 -93 -45 -199 -148 -108 -106 -140 -154 -68 -104 l32 23 -35 -34 c-19 -18 -47 -42 -61 -53 -36 -28 -47 -54 -42 -94 4 -21 1 -36 -8 -41 -10 -7 -10 -11 0 -24 16 -19 16 -105 1 -120 -5 -5 -10 -24 -10 -41 0 -17 -6 -37 -12 -43 -10 -10 -10 -15 1 -21 23 -14 28 -80 18 -250 l-10 -163 -56 -25 c-31 -13 -65 -28 -76 -32 -77 -34 -80 -34 -114 -2 -28 27 -30 31 -14 39 10 6 26 6 40 1 14 -5 25 -4 29 3 7 11 6 129 0 136 -2 1 -14 5 -27 7 -36 7 -94 -14 -105 -38 -5 -12 -21 -28 -36 -35 -25 -12 -27 -17 -25 -69 l2 -57 35 0 c33 -1 35 -2 32 -33 -2 -20 1 -33 8 -33 7 0 22 -8 35 -18 l23 -18 -35 -38 c-19 -20 -47 -45 -62 -54 -15 -9 -42 -34 -60 -54 -27 -32 -37 -37 -59 -32 -15 4 -33 12 -40 17 -10 8 -16 7 -23 -6 -6 -9 -19 -17 -31 -17 -16 0 -19 5 -16 25 3 14 0 30 -7 35 -17 14 -7 48 16 55 23 8 24 28 3 49 -21 21 -11 34 34 42 53 9 76 24 27 18 -108 -15 -150 -26 -169 -43 -12 -11 -32 -21 -46 -23 -20 -2 -26 -10 -32 -43 -16 -88 -21 -104 -38 -120 -16 -14 -17 -9 -23 91 -4 59 -7 325 -7 591 0 265 -3 483 -6 483 -3 0 -14 -5 -25 -11 -29 -15 -193 8 -244 34 -35 17 -62 20 -205 23 -155 2 -169 1 -229 -23 -35 -13 -87 -30 -117 -36 -46 -9 -56 -9 -72 6 -17 16 -19 15 -38 -11 -30 -40 -37 -61 -43 -127 -5 -51 -9 -60 -26 -60 -17 0 -21 10 -30 85 -6 47 -14 91 -18 98 -11 17 -37 15 -37 -3 0 -32 -43 -141 -62 -157 -20 -18 -20 -18 2 -36 33 -26 34 -132 4 -194 -26 -52 -43 -98 -56 -155 -9 -40 -12 -43 -36 -37 -38 9 -42 13 -42 36 0 12 8 22 20 25 30 8 20 24 -28 42 -23 9 -46 21 -52 27 -17 17 -9 205 10 214 8 4 33 16 55 27 l40 19 3 71 c3 72 3 72 -28 88 -18 9 -37 14 -44 12 -7 -3 -16 -29 -19 -59 -4 -29 -15 -70 -26 -91 -11 -21 -17 -45 -14 -53 3 -8 0 -35 -7 -60 -18 -63 -80 -111 -137 -105 -7 0 -20 17 -28 38 -14 32 -14 38 0 53 9 10 18 33 22 52 5 32 3 36 -21 42 -15 4 -31 4 -35 1 -5 -2 -16 6 -25 20 -9 14 -24 25 -34 25 -10 0 -27 7 -39 15 -14 10 -24 12 -28 5 -8 -13 -42 -13 -51 1 -3 6 0 15 7 20 13 8 -28 15 -71 11 -8 -1 -62 -2 -118 -3 l-104 -1 -10 -29 c-6 -19 -19 -31 -36 -36 -14 -3 -37 -12 -51 -19 -14 -8 -36 -14 -49 -14 -28 0 -42 -32 -40 -94 0 -41 4 -48 34 -65 26 -16 34 -27 34 -49 0 -25 -8 -41 -47 -91 -2 -3 -45 -6 -95 -8 -87 -3 -113 -10 -165 -43 -19 -12 -24 -12 -43 5 -17 16 -20 28 -17 66 5 65 -12 87 -56 72 -40 -14 -99 -27 -109 -25 -5 1 -8 -3 -8 -9 0 -8 13 -9 39 -5 40 6 65 -8 59 -35 -2 -8 7 -15 20 -17 15 -2 29 -15 37 -35 8 -18 23 -38 34 -45 28 -16 27 -25 -9 -65 -16 -19 -30 -41 -30 -50 0 -8 -13 -20 -30 -26 -16 -5 -30 -16 -30 -24 0 -17 -21 -27 -54 -27 -23 0 -64 -35 -54 -46 4 -3 80 -7 170 -10 89 -2 224 -7 298 -12 74 -4 293 -7 487 -7 400 0 376 -5 388 85 9 62 21 90 42 90 24 1 104 37 102 47 -5 28 4 22 21 -16 11 -24 20 -57 20 -75 1 -17 7 -49 15 -71 8 -22 15 -48 15 -57 0 -15 11 -18 73 -20 39 -1 104 -2 142 -3 39 -1 252 -5 475 -9 223 -4 411 -9 418 -11 17 -6 15 -40 -3 -55 -12 -10 -61 -11 -218 -6 -118 4 -208 3 -216 -3 -10 -7 -13 -29 -9 -95 2 -47 7 -88 10 -91 5 -5 54 -7 173 -6 78 1 84 -2 120 -52 26 -36 37 -42 70 -45 22 -1 47 -5 55 -9 22 -9 63 -13 170 -16 103 -4 140 -12 140 -30 1 -7 8 0 16 16 8 15 12 32 9 37 -14 23 27 8 52 -19 41 -43 46 -51 70 -111 43 -111 45 -120 20 -120 -16 0 -18 3 -9 12 16 16 15 28 -2 28 -8 0 -17 14 -21 30 -8 37 -33 87 -47 96 -7 5 -9 -1 -5 -17 9 -31 15 -67 10 -52 -11 31 -73 16 -73 -17 0 -9 3 -11 8 -4 4 6 18 8 32 4 24 -6 24 -6 -8 -13 -28 -6 -32 -10 -27 -27 5 -17 2 -20 -25 -20 -18 0 -45 8 -61 17 -27 16 -29 16 -51 -4 -13 -11 -29 -18 -37 -15 -9 3 -11 0 -6 -8 5 -8 -1 -11 -21 -9 -16 2 -39 -2 -51 -9 -29 -16 -33 -15 -34 6 0 11 -5 7 -14 -13 -8 -16 -14 -25 -15 -18 0 7 -7 10 -15 7 -8 -4 -15 -1 -15 5 0 6 -10 11 -22 11 -22 -1 -23 -1 -4 -15 11 -8 18 -15 15 -16 -23 -5 -119 -3 -139 2 -16 5 -18 8 -7 8 32 2 17 16 -18 17 -37 1 -48 -11 -17 -19 9 -3 1 -5 -18 -6 -26 0 -31 2 -20 9 11 7 6 10 -20 11 -28 0 -31 2 -15 8 11 5 24 6 29 3 5 -3 6 0 2 6 -4 7 -13 12 -21 12 -7 0 -16 6 -19 13 -5 10 -7 10 -12 0 -3 -7 -10 -13 -15 -13 -6 0 -7 5 -4 10 4 6 -10 10 -34 10 -22 0 -42 -5 -44 -12 -3 -8 -6 -5 -6 6 -1 12 -6 16 -17 12 -9 -3 -20 -6 -25 -6 -5 0 -9 -8 -10 -17 0 -11 -2 -13 -6 -5 -3 7 2 23 11 37 15 22 14 24 -4 22 -11 -1 -20 -8 -20 -17 -1 -12 -3 -11 -15 4 -10 13 -23 17 -45 14 -17 -3 -33 -1 -36 3 -2 5 -12 5 -20 2 -11 -4 -14 -1 -12 10 5 25 -16 21 -24 -5 -5 -21 -6 -20 -8 7 -1 18 -4 23 -7 13 -8 -33 -26 -19 -19 15 4 20 3 27 -3 18 -7 -11 -11 -10 -19 5 -10 18 -11 18 -18 1 -6 -17 -7 -17 -21 3 -8 11 -19 18 -24 14 -6 -3 -20 4 -31 16 -14 15 -27 20 -44 16 -25 -7 -31 3 -14 20 7 7 3 15 -14 23 -16 9 -22 19 -19 32 5 20 -20 28 -31 10 -3 -5 -20 -12 -38 -15 -18 -3 -53 -22 -78 -42 -32 -25 -50 -34 -67 -29 -18 4 -23 1 -23 -13 0 -22 -64 -83 -82 -80 -7 2 -12 -3 -10 -10 1 -7 -7 -26 -18 -42 -11 -15 -20 -35 -20 -42 0 -8 -3 -18 -7 -22 -5 -4 -8 -13 -8 -19 0 -7 -15 -16 -32 -22 -18 -5 -33 -13 -33 -18 0 -4 -10 -5 -22 -2 -18 5 -20 4 -8 -4 21 -14 -67 -52 -145 -62 -165 -21 -225 -32 -340 -62 -33 -8 -153 -72 -185 -97 -53 -42 -82 -104 -71 -151 30 -130 123 -187 370 -226 131 -21 227 -9 360 42 50 19 92 35 95 35 2 0 0 -15 -5 -32 -5 -18 -9 -50 -9 -70 0 -24 -5 -38 -12 -38 -9 0 -8 -4 2 -10 9 -6 11 -13 5 -17 -5 -5 -10 -14 -11 -20 -3 -44 -4 -45 -28 -41 -15 3 -27 0 -30 -7 -2 -7 -29 -27 -58 -44 -71 -40 -214 -173 -204 -189 5 -8 45 -12 127 -12 79 0 119 -4 119 -11 0 -7 -30 -10 -87 -9 -49 1 -110 1 -138 1 l-50 -1 -28 -63 c-16 -34 -33 -70 -39 -81 -12 -22 -12 -206 -1 -217 5 -5 58 -11 118 -14 60 -3 110 -7 112 -8 6 -7 -70 -217 -78 -217 -6 0 -8 -4 -4 -9 8 -13 -24 -93 -44 -109 -8 -7 -21 -10 -28 -8 -6 3 -13 0 -15 -5 -2 -6 -130 -10 -338 -11 -206 0 -340 -4 -347 -10 -9 -7 -17 -7 -27 1 -9 8 -63 10 -177 6 -90 -3 -203 -5 -251 -5 l-88 0 0 -168 0 -168 102 3 c263 6 977 1 1010 -6 22 -5 36 -5 32 0 -3 5 2 9 12 9 11 0 15 -6 11 -17 -26 -81 -33 -93 -46 -88 -11 5 -12 3 -1 -10 23 -27 -21 -43 -48 -17 -7 6 -21 12 -29 12 -14 0 -14 -2 1 -19 11 -12 26 -18 41 -15 22 4 23 2 18 -33 -3 -21 -13 -49 -22 -63 -14 -20 -15 -32 -8 -58 9 -27 7 -36 -11 -55 -12 -13 -22 -29 -22 -35 0 -17 -27 -15 -33 2 -3 7 -18 17 -33 20 -21 6 -36 0 -70 -23 -23 -17 -50 -31 -59 -31 -9 0 -13 -4 -10 -10 3 -5 2 -10 -4 -10 -5 0 -69 -1 -140 -3 -72 -1 -131 1 -131 4 0 4 -10 5 -22 1 l-22 -5 23 -9 c12 -4 19 -12 16 -18 -4 -6 -11 -8 -16 -5 -5 4 -9 -1 -9 -9 0 -9 -7 -16 -16 -16 -14 0 -15 -2 -3 -17 12 -15 12 -16 -3 -10 -10 3 -20 2 -23 -3 -4 -6 -2 -10 2 -10 5 0 9 -9 9 -20 0 -12 -5 -19 -12 -16 -7 2 -21 -4 -32 -15 -12 -10 -29 -19 -39 -20 -11 0 -13 -3 -5 -6 16 -6 16 -26 0 -21 -7 3 -19 -2 -27 -10 -12 -11 -12 -15 -1 -22 9 -6 7 -10 -9 -15 -11 -3 -21 -11 -21 -17 0 -6 -11 -21 -25 -34 -14 -13 -25 -26 -25 -30 0 -12 -204 -3 -212 9 -6 9 -8 9 -8 0 0 -7 -9 -13 -21 -13 -11 0 -18 4 -15 9 4 5 -5 4 -19 -2 l-25 -12 0 -627 0 -627 1005 -1 c553 0 1005 3 1005 8 0 4 -5 13 -12 20 -6 6 -10 13 -7 16 4 3 183 19 242 20 28 1 39 16 12 16 -12 0 -13 4 -5 19 6 13 6 21 0 23 -6 2 -4 14 4 30 12 23 12 29 1 38 -8 6 -11 18 -8 27 3 8 0 19 -7 23 -9 6 -7 10 9 15 17 5 19 10 11 20 -8 9 -7 17 2 26 15 16 19 59 6 59 -4 0 -8 4 -8 10 0 5 8 7 18 4 9 -2 2 3 -15 12 -40 21 -42 34 -6 34 20 0 24 3 16 11 -9 9 -8 15 3 26 16 16 19 48 4 38 -6 -4 -8 -11 -5 -16 4 -5 1 -9 -5 -9 -7 0 -9 7 -6 16 3 9 6 28 6 42 0 21 3 24 10 12 5 -8 13 -11 17 -6 4 4 0 14 -11 21 -17 13 -17 15 -3 29 9 9 23 16 33 16 16 0 16 1 1 18 -10 10 -17 26 -17 34 0 9 -6 18 -12 21 -9 3 -7 10 7 26 13 15 18 34 16 57 -1 19 3 42 10 50 10 13 10 17 0 24 -18 10 -5 30 20 30 10 0 19 4 19 9 0 5 -9 7 -20 4 -11 -3 -20 0 -20 6 0 6 5 11 10 11 17 0 11 18 -8 23 -15 4 -15 5 2 6 11 1 16 6 13 15 -3 8 2 17 11 21 14 5 14 7 2 15 -8 6 -10 10 -5 10 11 0 11 113 0 131 -4 5 1 17 11 24 12 10 15 17 9 22 -6 5 -10 14 -9 21 1 6 2 18 3 26 1 10 34 13 163 14 90 0 172 2 183 4 15 2 19 -2 18 -17 -1 -11 0 -14 3 -7 3 6 11 9 16 6 7 -4 8 -2 4 4 -10 16 43 27 65 14 10 -7 20 -8 23 -4 2 4 37 6 78 5 40 -1 171 -2 291 -3 119 -1 217 -4 217 -9 0 -4 -6 -13 -12 -20 -11 -11 -9 -11 9 0 12 7 20 15 18 19 -3 6 175 3 270 -4 136 -10 425 -12 492 -3 67 9 74 8 100 -13 23 -18 35 -20 71 -15 54 8 125 -3 115 -18 -4 -7 0 -8 13 -2 10 4 30 10 44 12 23 4 29 17 69 156 24 84 46 154 48 156 2 3 12 -4 22 -15 10 -10 53 -50 94 -88 42 -38 74 -73 70 -79 -3 -6 -1 -7 4 -4 6 4 41 -21 79 -54 38 -34 102 -88 141 -121 40 -33 70 -65 66 -71 -3 -5 -2 -7 4 -4 10 7 237 -63 229 -70 -2 -2 -45 -5 -95 -7 -63 -1 -98 2 -110 11 -15 10 -21 10 -30 0 -7 -9 -29 -12 -63 -10 -38 2 -49 1 -38 -7 9 -6 78 -10 160 -10 80 0 159 -3 175 -8 18 -5 36 -5 46 1 13 8 29 0 73 -39 31 -27 59 -59 62 -71 4 -13 11 -24 18 -24 6 -1 25 -3 41 -5 17 -2 51 -7 77 -12 34 -7 68 -5 123 6 68 13 79 13 113 -1 20 -8 46 -18 57 -22 16 -5 17 -8 5 -16 -12 -8 -10 -9 7 -4 20 5 88 -17 103 -34 3 -4 19 -7 36 -8 17 -2 59 -16 92 -33 34 -16 65 -30 69 -30 5 0 15 -6 22 -12 6 -7 26 -13 43 -13 22 0 32 -5 34 -17 3 -21 3 -21 -32 -8 -24 9 -25 9 -14 -5 13 -16 37 -19 65 -9 13 5 14 8 3 15 -10 7 -9 9 5 9 9 0 17 -5 17 -11 0 -5 5 -7 10 -4 6 3 16 3 23 -2 6 -4 14 -8 17 -9 28 -5 60 -18 60 -23 0 -4 11 -8 24 -9 13 -1 71 -19 128 -41 56 -21 111 -41 121 -45 10 -3 15 -11 12 -16 -4 -7 3 -8 21 -4 24 6 26 5 22 -14 -5 -18 -2 -20 21 -16 15 3 72 -9 141 -31 131 -41 161 -54 154 -66 -3 -5 23 -35 57 -66 34 -32 88 -82 120 -112 32 -30 56 -58 53 -63 -3 -4 1 -8 9 -8 8 0 29 -16 48 -35 34 -35 34 -35 127 -35 l92 0 -2 182 c-3 174 -4 183 -23 186 -38 7 -39 21 -7 61 l32 40 0 485 c0 373 -3 487 -12 492 -7 5 -36 7 -65 7 -36 -1 -53 3 -57 13 -3 7 -11 11 -19 8 -7 -2 -44 1 -80 9 -60 12 -67 12 -68 -2 0 -12 -3 -11 -9 4 -5 11 -9 14 -9 6 -1 -10 -4 -11 -15 -2 -7 6 -51 14 -97 17 -46 2 -110 7 -142 9 -45 4 -56 2 -51 -8 4 -6 -2 -4 -13 6 -26 22 -32 22 -42 -6 l-9 -22 -9 22 c-8 21 -13 22 -126 20 -64 -1 -117 2 -117 7 0 5 -6 4 -13 -3 -9 -7 -17 -7 -24 0 -6 6 -30 9 -54 7 -35 -2 -43 -6 -41 -20 2 -10 -2 -18 -8 -18 -5 0 -10 7 -10 15 0 23 -35 36 -95 33 -48 -2 -56 -5 -52 -20 3 -10 1 -18 -4 -18 -5 0 -9 7 -9 16 0 14 -8 15 -55 9 -47 -6 -54 -4 -49 9 10 26 -51 21 -69 -5 -12 -17 -17 -18 -24 -7 -12 22 -45 31 -54 16 -7 -10 -11 -10 -21 0 -14 14 -32 16 -23 2 3 -5 2 -10 -4 -10 -5 0 -12 3 -15 8 -7 11 -178 7 -200 -5 -15 -8 -25 -8 -40 3 -22 13 -42 14 -63 1 -6 -4 -18 -4 -27 -1 -9 3 -16 1 -16 -5 0 -6 -7 -11 -16 -11 -9 0 -13 -5 -9 -12 4 -7 -3 -2 -14 11 -19 21 -24 22 -52 11 -18 -8 -34 -9 -37 -4 -6 8 -31 9 -95 5 -10 0 -15 -5 -12 -11 3 -5 -3 -10 -14 -10 -12 0 -21 5 -21 11 0 5 5 7 10 4 6 -3 10 -1 10 4 0 19 -22 12 -27 -9 -6 -23 -23 -27 -23 -5 0 8 -5 15 -10 15 -6 0 -10 -7 -8 -16 2 -10 -3 -18 -10 -20 -7 -1 -8 0 -2 3 15 7 2 23 -14 17 -8 -3 -17 -1 -21 5 -3 6 -15 11 -26 11 -11 0 -35 16 -55 35 -39 39 -89 48 -97 18 -3 -15 -6 -14 -16 7 -12 24 -72 70 -92 70 -5 0 -9 5 -9 10 0 6 -7 10 -15 10 -9 0 -18 7 -21 15 -4 8 -11 15 -18 15 -6 0 -24 13 -39 29 -15 17 -36 33 -47 36 -11 4 -20 13 -20 21 0 8 -7 14 -15 14 -8 0 -23 8 -33 18 -10 9 -34 28 -55 42 -20 14 -37 28 -37 33 0 4 -5 7 -10 7 -6 0 -23 12 -38 26 -15 14 -39 32 -54 40 -15 7 -33 22 -40 31 -7 10 -26 25 -41 33 -16 8 -39 23 -51 35 -12 11 -42 33 -67 50 -37 25 -142 108 -159 125 -3 3 -25 21 -50 40 -25 19 -47 37 -50 40 -8 8 -84 72 -126 105 -20 17 -47 40 -59 53 -12 12 -26 22 -30 22 -4 0 -17 10 -29 23 -12 12 -42 38 -65 57 -73 59 -115 99 -109 105 5 6 617 6 658 0 14 -2 34 -4 45 -4 16 -1 12 -9 -24 -40 l-45 -39 42 -4 c29 -2 42 0 42 9 0 7 12 24 28 38 25 25 32 26 99 22 66 -5 75 -8 109 -41 20 -20 43 -36 50 -36 7 0 16 -5 20 -12 5 -8 -5 -9 -37 -5 -28 4 -38 2 -28 -3 15 -9 165 -27 286 -34 32 -2 87 -9 123 -14 36 -6 103 -14 150 -18 47 -3 128 -14 180 -24 87 -17 105 -24 215 -93 66 -40 147 -89 180 -107 33 -18 83 -47 110 -65 87 -57 159 -101 190 -118 17 -9 120 -33 230 -52 110 -20 254 -47 320 -60 66 -13 140 -27 165 -31 25 -3 70 -12 100 -20 47 -12 56 -12 69 1 14 13 13 15 -4 15 -11 0 -31 3 -45 6 -20 4 -22 3 -10 -5 9 -7 10 -11 3 -11 -6 0 -15 5 -18 10 -12 19 24 22 82 7 36 -10 48 -16 32 -16 -15 -1 -29 -7 -32 -15 -4 -9 0 -13 11 -10 71 13 72 14 72 42 0 16 -3 22 -8 15 -6 -9 -25 -9 -80 -1 -40 6 -72 14 -72 19 0 5 -18 9 -40 9 -27 0 -40 4 -40 14 0 7 -7 20 -16 27 -14 12 -14 14 3 20 12 5 4 8 -24 8 -24 1 -43 5 -43 9 0 4 -13 13 -30 19 -16 6 -30 18 -30 27 0 13 -11 16 -51 16 -27 0 -71 6 -97 14 -26 7 -90 26 -142 41 -52 15 -105 31 -118 36 -13 5 -35 9 -50 9 -29 0 -52 16 -52 35 0 5 5 3 10 -5 7 -12 12 -12 21 -3 10 10 9 16 -4 31 -9 10 -17 23 -17 29 0 6 -36 20 -80 33 -44 13 -80 26 -80 30 0 4 -19 13 -42 21 -42 14 -48 15 -68 18 -5 0 -7 8 -3 17 5 14 1 16 -26 12 -28 -4 -33 -1 -48 29 -13 28 -18 31 -31 21 -13 -11 -14 -9 -7 12 10 33 25 49 25 27 0 -10 7 -17 18 -16 10 0 12 3 5 6 -18 7 -16 23 3 44 20 22 12 71 -10 63 -9 -4 -13 3 -13 20 0 14 2 26 4 26 3 0 40 -19 82 -42 102 -55 564 -288 726 -365 207 -99 517 -251 552 -271 18 -11 29 -23 25 -27 -4 -5 -2 -5 4 -2 7 4 77 -22 157 -58 81 -36 151 -65 157 -65 7 0 10 525 10 1675 l0 1675 -77 0 c-43 0 -226 -9 -408 -20 -363 -22 -927 -50 -1019 -50 -48 0 -57 3 -52 15 3 8 2 15 -3 15 -13 0 -22 102 -10 117 7 7 9 13 5 13 -4 0 1 11 10 25 11 17 12 25 5 25 -7 0 -9 5 -6 10 15 24 15 119 1 152 l-14 33 -1 -28 c-1 -15 -8 -44 -17 -65 -14 -33 -17 -35 -24 -17 -5 11 -9 34 -9 50 -1 17 -5 36 -10 44 -6 9 -9 -12 -9 -58 1 -40 -4 -76 -9 -80 -6 -3 -12 -13 -15 -21 -3 -8 -8 8 -12 35 -7 52 -51 155 -66 155 -5 0 2 -24 15 -53 13 -30 26 -76 29 -103 l6 -49 -13 41 c-20 60 -41 104 -49 104 -4 0 2 -21 13 -46 11 -25 23 -70 26 -99 5 -49 3 -58 -26 -96 -28 -39 -31 -41 -31 -18 0 81 -148 249 -275 311 -65 32 -72 41 -56 67 10 15 54 4 124 -31 20 -10 37 -15 37 -11 0 12 -75 53 -165 90 -44 18 -73 33 -64 33 9 0 33 -7 52 -15 20 -8 49 -15 64 -15 25 1 26 2 9 12 -17 9 -14 13 28 33 34 16 42 24 31 29 -23 8 -27 8 -20 -4 3 -5 0 -7 -7 -5 -18 7 -21 45 -4 45 19 0 12 41 -8 52 -14 8 -15 12 -6 18 9 6 7 13 -9 29 -12 12 -19 26 -16 31 3 5 -4 12 -16 15 -12 4 -18 13 -15 20 3 10 -5 15 -27 18 l-32 3 33 9 c45 11 23 24 -43 26 -48 1 -49 1 -18 10 38 11 53 29 24 29 -13 0 -19 5 -15 14 3 8 1 17 -5 21 -8 4 -8 12 -1 26 10 18 9 19 -14 13 -15 -3 -26 -4 -26 0 0 3 38 17 85 32 75 23 97 26 187 22 160 -7 240 -41 374 -158 32 -28 61 -50 66 -50 43 0 -71 114 -158 158 -117 59 -211 84 -314 86 -52 0 -117 -3 -144 -7 -31 -6 -46 -5 -42 1 12 20 -76 -9 -127 -41 -80 -51 -77 -50 -71 -32 4 8 35 31 70 51 69 38 94 62 53 50 -13 -4 -32 -9 -42 -11 -23 -5 -107 -66 -107 -78 0 -5 -7 -6 -16 -3 -8 3 -13 2 -10 -3 3 -5 -8 -26 -24 -46 -30 -37 -43 -38 -15 -1 23 30 18 42 -7 19 -13 -11 -29 -18 -36 -16 -7 3 -19 0 -27 -7 -7 -6 -22 -10 -32 -9 -10 2 -35 -3 -55 -10 -21 -7 -46 -10 -55 -7 -17 5 -32 -3 -130 -63 -65 -40 -12 10 74 69 139 97 354 183 663 265 109 29 121 35 60 30 l-55 -5 39 13 c52 16 64 36 48 80 -7 18 -12 57 -12 85 0 40 -5 56 -22 72 -12 11 -18 20 -14 20 4 0 -3 17 -15 37 -15 24 -22 49 -20 74 1 21 -3 40 -9 44 -7 4 -7 12 0 26 11 20 3 92 -9 85 -4 -3 -15 6 -25 19 -10 14 -22 22 -27 19 -5 -3 -9 0 -9 5 0 6 8 11 18 11 16 1 16 1 0 11 -10 5 -18 17 -18 25 0 8 -4 12 -10 9 -6 -4 -10 6 -10 24 0 36 -17 50 -22 19 -4 -21 -6 -20 -26 14 -13 20 -34 44 -48 52 -31 21 -31 34 2 46 14 6 22 15 19 21 -4 5 0 18 9 28 16 17 14 21 -38 55 -30 20 -58 41 -62 47 -4 6 -30 22 -59 35 -61 27 -85 51 -39 40 34 -9 31 -9 74 -7 23 1 39 8 47 20 13 22 6 63 -11 59 -14 -3 -56 32 -56 47 0 6 21 16 48 24 26 7 65 19 87 27 65 23 66 22 59 -53 -6 -67 -6 -68 13 -50 26 23 38 22 16 -2 -10 -10 -27 -21 -38 -24 -19 -5 -19 -5 3 -12 12 -4 22 -13 22 -21 0 -7 5 -16 11 -20 9 -5 10 1 5 20 -6 23 -4 27 11 24 11 -2 17 -12 16 -25 -2 -13 5 -23 17 -26 13 -3 20 -14 20 -30 0 -32 93 -119 98 -93 5 22 29 20 35 -3 3 -14 1 -18 -10 -14 -12 5 -14 1 -8 -18 3 -13 9 -32 12 -43 3 -10 -3 -33 -13 -52 -18 -34 -13 -57 8 -36 19 19 28 14 28 -18 0 -16 -4 -30 -10 -30 -5 0 -10 5 -10 10 0 6 -7 10 -15 10 -17 0 -30 -42 -21 -66 4 -9 -2 -31 -12 -48 -10 -18 -22 -55 -26 -83 -5 -42 -3 -52 10 -57 22 -8 31 -1 54 43 10 21 28 41 40 44 11 3 20 12 20 21 0 12 6 15 25 10 19 -5 31 1 55 25 17 17 28 36 25 42 -4 6 -8 33 -9 60 -1 31 -7 54 -16 60 -11 8 -12 12 -2 16 6 2 12 11 12 19 0 26 30 15 36 -13 3 -16 10 -41 16 -56 17 -45 32 -8 18 45 -16 58 -42 77 -110 78 -39 1 -49 4 -35 10 l20 8 -20 8 c-11 5 -21 19 -22 32 -2 13 1 21 7 17 6 -3 10 -2 10 4 0 5 -8 12 -17 14 -11 3 -8 5 9 6 23 1 28 7 34 36 3 19 10 35 15 35 5 0 9 7 9 15 0 8 7 15 15 15 8 0 15 -4 15 -10 0 -5 -4 -10 -10 -10 -5 0 -7 -7 -3 -16 3 -8 12 -13 19 -10 8 3 14 0 14 -7 0 -7 7 -3 15 7 14 19 15 18 15 -10 0 -23 3 -26 10 -14 8 11 10 6 8 -20 -1 -19 3 -44 10 -55 11 -20 11 -20 12 0 1 14 3 16 7 5 8 -22 54 -61 64 -54 5 3 9 -5 9 -17 0 -16 -5 -20 -20 -16 -11 3 -18 1 -14 -4 12 -19 7 -131 -6 -139 -10 -6 -10 -10 1 -22 11 -13 19 -3 54 71 l40 86 -1 125 c0 69 -4 148 -9 175 -10 58 -49 123 -79 131 -12 3 -34 23 -51 46 -16 22 -40 44 -52 49 -13 5 -23 17 -23 27 0 15 -16 24 -72 41 -40 12 -87 28 -104 35 -19 9 -94 17 -195 21 -90 4 -173 8 -184 9 -11 1 -31 0 -44 -2z m263 -2292 c14 0 28 -4 31 -10 3 -5 18 -10 33 -10 46 0 125 -44 177 -99 91 -95 106 -154 58 -219 -76 -101 -133 -154 -133 -123 0 5 -10 11 -22 14 -17 5 -19 9 -9 21 13 15 -1 32 -18 21 -5 -3 -12 -1 -15 4 -4 5 -2 12 4 16 15 9 12 42 -5 49 -9 3 -15 0 -15 -10 0 -8 -5 -12 -10 -9 -6 4 -8 15 -5 25 5 14 -3 23 -30 36 -30 14 -36 21 -33 43 3 22 -1 26 -27 29 -16 2 -36 11 -42 20 -11 14 -13 13 -13 -10 0 -15 -4 -30 -10 -33 -5 -3 -10 2 -10 12 0 15 -2 16 -10 3 -8 -12 -10 -9 -10 13 0 19 -7 30 -22 37 -23 9 -23 9 -1 9 16 1 20 6 16 20 -3 11 1 21 9 24 7 2 5 3 -4 2 -13 -2 -19 7 -24 32 -4 21 -2 38 4 42 13 8 11 43 -2 53 -5 3 6 11 25 16 24 6 42 5 61 -4 15 -8 38 -14 52 -14z m-224 -385 c0 -8 7 -15 15 -15 9 0 18 -7 21 -15 4 -8 12 -15 20 -15 7 0 18 -8 23 -17 9 -15 12 -15 20 -4 11 16 26 -3 15 -20 -5 -9 1 -10 20 -5 22 5 26 3 24 -11 -2 -11 6 -19 22 -23 23 -7 24 -8 5 -14 -11 -4 -27 -11 -35 -15 -8 -5 -51 -6 -96 -3 l-81 4 -12 -30 c-12 -28 -18 -31 -60 -34 -57 -4 -83 8 -105 46 -15 27 -16 30 -1 38 8 5 13 13 10 18 -3 5 -1 17 4 27 5 10 12 26 15 37 4 12 13 17 26 13 11 -3 35 -1 55 3 33 7 35 7 35 -19 0 -19 3 -22 9 -12 6 9 6 22 -1 34 -5 10 -8 19 -6 20 2 1 12 7 23 14 27 16 35 16 35 -2z m-1926 -654 c16 -11 34 -17 41 -15 6 3 23 0 37 -5 23 -9 26 -16 26 -55 0 -24 5 -52 10 -63 5 -10 12 -34 16 -54 6 -34 9 -37 48 -42 24 -3 47 -2 53 3 5 4 28 8 49 8 23 0 34 -3 26 -8 -8 -5 3 -10 30 -15 l42 -7 -7 -52 c-3 -28 -5 -89 -5 -136 1 -74 -14 -248 -23 -256 -1 -2 -21 -6 -43 -10 l-40 -6 0 41 c1 23 6 45 11 49 6 4 10 13 11 20 2 28 4 33 12 28 4 -2 8 4 8 14 0 10 -4 16 -8 14 -11 -7 -10 2 1 24 16 30 40 105 46 147 4 22 9 48 12 58 4 14 -2 17 -36 17 -22 0 -43 5 -46 10 -4 6 10 10 36 10 78 0 34 10 -92 20 -135 11 -168 19 -132 29 21 6 21 8 7 41 -8 19 -15 36 -15 38 2 6 -40 42 -49 42 -6 0 -13 7 -16 15 -4 8 -15 15 -25 15 -12 0 -16 5 -12 15 6 18 -25 45 -44 38 -7 -3 -13 2 -13 11 0 9 -3 15 -7 15 -27 -4 -63 3 -58 11 11 18 117 12 149 -9z m2056 -71 c36 -6 86 -15 113 -21 l47 -11 0 -73 c0 -64 -3 -74 -22 -88 l-23 -15 33 -67 c59 -120 65 -149 59 -263 -6 -106 -22 -152 -52 -152 -22 0 -19 -43 5 -73 25 -31 25 -43 1 -91 -16 -30 -18 -43 -9 -67 8 -22 7 -34 -1 -42 -6 -6 -11 -20 -11 -32 0 -11 -12 -28 -27 -38 -22 -14 -24 -17 -8 -15 18 3 20 -3 21 -47 3 -95 -8 -166 -25 -172 -9 -2 -24 -9 -33 -14 -13 -6 -16 -5 -12 5 3 8 1 17 -5 21 -6 3 -8 17 -5 30 3 12 1 26 -5 29 -6 4 -11 18 -11 32 0 16 -4 23 -11 18 -13 -8 -5 -70 16 -120 13 -32 16 -34 37 -23 19 9 21 9 11 -2 -17 -18 -16 -25 6 -46 16 -16 18 -25 10 -78 -8 -53 -6 -62 11 -76 19 -16 17 -19 -46 -75 -36 -33 -73 -59 -82 -59 -11 0 -17 -8 -17 -25 -1 -14 -6 -39 -12 -55 -28 -74 -21 -125 16 -125 6 0 11 -5 11 -11 0 -6 7 -17 15 -26 9 -8 15 -17 13 -18 -2 -2 -39 3 -83 10 -44 7 -111 16 -150 20 l-70 7 38 19 c20 11 37 24 37 29 0 6 9 10 20 10 11 0 20 5 20 10 0 6 -4 10 -9 10 -6 0 -7 16 -4 35 6 38 -16 102 -51 150 -12 17 -26 39 -30 49 -7 19 -6 19 13 2 14 -13 20 -14 24 -4 3 10 8 11 25 1 24 -14 20 -25 41 127 6 41 15 113 21 160 10 93 27 233 36 293 3 25 1 39 -8 42 -7 2 -71 11 -141 20 -71 9 -135 19 -143 22 -15 5 -19 35 -7 47 4 4 8 31 8 61 1 45 6 58 28 79 30 28 35 57 11 77 -31 26 6 212 59 299 12 19 40 55 62 79 l40 44 0 86 c0 47 4 92 8 99 10 15 106 16 197 2z m-759 -580 c45 -61 48 -69 48 -128 1 -49 -4 -71 -19 -92 -19 -27 -19 -29 -3 -38 16 -9 15 -11 -2 -28 -11 -11 -14 -19 -6 -22 7 -2 8 -9 1 -22 -5 -9 -9 -28 -8 -41 3 -63 -3 -99 -15 -99 -10 0 -12 16 -9 63 2 34 -1 74 -7 90 -9 24 -16 27 -53 27 -43 0 -43 0 -44 -38 -4 -117 -17 -218 -30 -232 -12 -12 -14 -12 -14 3 0 10 -5 14 -15 11 -10 -4 -15 0 -16 12 -1 11 -5 6 -11 -13 -9 -26 -7 -37 6 -57 9 -14 16 -35 16 -46 0 -12 4 -18 10 -15 6 4 10 12 9 18 -4 31 2 58 11 52 7 -4 8 -36 5 -86 -4 -52 -2 -79 5 -79 15 0 12 -29 -5 -47 -9 -8 -13 -18 -10 -21 3 -4 10 0 15 8 6 10 9 4 8 -18 -1 -43 -22 -53 -78 -41 -56 13 -72 7 -61 -23 9 -24 36 -35 88 -37 21 -1 32 -6 30 -13 -1 -8 11 -14 30 -16 38 -4 73 23 73 55 0 13 6 23 13 23 8 0 7 4 -3 10 -13 8 -12 10 3 10 9 0 18 -6 18 -12 2 -23 17 46 18 85 0 20 3 37 5 37 7 0 50 -24 75 -42 l24 -17 -27 -40 c-15 -22 -33 -61 -40 -87 -10 -41 -18 -51 -52 -69 -21 -11 -43 -30 -49 -43 -10 -23 -42 -29 -73 -13 -37 19 -589 30 -757 15 -63 -5 -72 -4 -89 15 -18 19 -18 21 -1 27 18 7 663 -4 675 -11 4 -2 27 -1 51 4 39 8 40 9 12 10 -17 1 -33 7 -35 14 -4 9 -92 13 -384 15 l-379 3 -50 53 c-239 252 -283 305 -264 317 20 15 670 3 854 -15 83 -8 174 -18 203 -22 l52 -7 0 30 c0 28 -2 30 -36 28 -20 -1 -52 1 -72 5 -86 19 -276 34 -415 35 -59 0 -107 2 -107 5 0 3 -109 6 -243 7 -270 2 -303 4 -322 24 -13 14 -55 85 -55 94 0 3 93 5 208 5 178 1 204 3 182 14 -14 7 -43 16 -65 20 -62 11 -75 16 -75 32 0 11 13 13 63 8 81 -7 88 -10 80 -29 -5 -15 3 -16 76 -10 58 6 81 4 81 -4 0 -7 27 -11 81 -11 51 0 78 4 74 10 -8 13 5 13 140 -1 105 -10 114 -13 200 -61 50 -28 113 -68 142 -89 29 -22 56 -39 61 -39 8 0 23 160 27 295 1 40 5 51 19 53 15 3 16 6 5 13 -10 6 -14 29 -12 85 l1 77 64 64 c41 42 70 63 82 61 11 -2 41 -32 67 -68z m-1130 -32 c0 -22 1 -22 9 -3 l9 20 1 -20 c1 -11 2 -54 2 -95 l0 -75 10 55 c15 80 26 36 18 -70 -6 -71 -4 -87 9 -97 15 -11 14 -12 -1 -13 -9 0 -18 5 -20 11 -2 6 -16 12 -31 12 -25 0 -27 3 -29 41 l-1 41 -4 -37 c-4 -37 -5 -38 -44 -38 -26 0 -42 5 -45 15 -3 8 3 61 15 117 12 57 21 113 21 125 0 17 7 23 33 26 17 2 35 5 40 5 4 1 7 -8 8 -20z m-711 -458 c-10 -7 21 -10 97 -10 l111 0 8 -32 c7 -34 50 -136 83 -198 11 -19 35 -44 56 -55 32 -18 35 -23 31 -49 -4 -18 0 -38 9 -53 l15 -23 -110 0 c-60 0 -110 -3 -110 -7 0 -5 -127 -7 -282 -6 -156 2 -317 3 -359 3 l-76 0 -22 53 c-12 28 -25 80 -28 114 -5 51 -9 60 -22 56 -9 -3 -4 6 11 21 15 14 36 26 46 26 11 0 25 7 32 15 7 8 20 15 29 15 9 0 48 12 86 25 39 14 102 32 142 40 39 9 97 24 129 35 31 11 68 20 81 20 14 0 21 4 18 10 -3 6 4 10 17 10 18 0 20 -2 8 -10z m467 -508 c10 -7 131 -156 170 -209 10 -14 42 -52 72 -84 46 -51 81 -100 81 -115 0 -2 -7 -4 -15 -4 -9 0 -15 -7 -13 -16 4 -20 -30 -28 -49 -12 -7 6 -13 7 -13 2 0 -10 -90 -14 -90 -5 0 3 -10 17 -21 31 l-21 25 6 -34 c6 -31 4 -33 -17 -26 -12 4 -49 7 -82 6 -36 0 -62 5 -67 12 -5 8 -8 6 -8 -5 0 -10 -5 -18 -11 -18 -7 0 -18 8 -26 18 -8 9 -12 12 -9 5 5 -8 -28 -10 -126 -8 -73 3 -224 5 -335 7 -155 2 -204 6 -208 16 -4 10 -51 11 -237 6 -128 -3 -236 -8 -240 -10 -4 -3 -18 -2 -32 2 -25 6 -25 7 -9 37 15 29 63 159 100 270 l16 47 81 0 c122 0 188 10 182 27 -7 16 3 20 67 26 33 3 52 0 62 -9 10 -11 14 -11 18 -1 3 9 68 13 258 17 387 9 505 9 516 2z m-1328 -809 c10 -17 10 -17 11 0 0 17 14 18 278 12 152 -4 338 -8 412 -10 74 -2 145 -6 158 -9 12 -3 20 -1 18 3 -7 11 276 12 289 1 7 -6 21 -4 37 4 16 9 31 10 42 4 9 -5 21 -6 26 -3 18 11 50 14 55 4 4 -5 14 -5 27 2 22 12 40 -3 31 -27 -2 -6 0 -15 6 -19 6 -3 11 -1 11 6 0 8 5 7 17 -2 15 -13 15 -11 -1 13 -17 26 -17 26 14 33 20 4 36 2 47 -7 11 -9 17 -10 20 -2 4 12 50 7 59 -7 3 -5 13 -9 22 -8 11 0 12 3 5 6 -18 7 -16 23 2 23 8 0 15 -4 15 -10 0 -5 7 -10 16 -10 9 0 12 5 8 11 -5 8 15 10 72 5 107 -8 95 -8 226 -3 90 4 119 2 128 -8 8 -10 7 -16 -7 -25 -16 -10 -16 -11 0 -6 9 3 17 2 17 -3 0 -5 -13 -11 -30 -15 -16 -3 -30 -10 -30 -15 0 -5 10 -6 23 -3 21 5 21 5 5 -12 -21 -21 -22 -25 -5 -22 25 6 47 18 47 28 0 5 -4 6 -10 3 -17 -11 -11 5 11 28 12 12 19 17 15 10 -3 -6 -2 -14 4 -18 6 -4 7 -11 4 -17 -4 -6 1 -8 13 -4 26 8 54 -20 29 -30 -9 -3 -16 -13 -16 -22 0 -14 2 -13 13 2 17 23 48 11 43 -18 -2 -11 -1 -15 1 -8 6 16 13 15 32 -6 9 -10 24 -21 34 -25 9 -4 22 -18 27 -32 5 -14 14 -25 20 -25 6 0 14 -8 17 -17 4 -10 13 -23 22 -29 13 -10 13 -15 -1 -45 -9 -19 -19 -48 -23 -66 -4 -22 -11 -30 -21 -26 -15 6 -20 -12 -5 -21 11 -7 3 -43 -15 -71 -11 -17 -17 -35 -23 -75 -1 -3 -24 -6 -52 -7 -48 -3 -50 -2 -38 15 13 15 12 16 -3 4 -9 -8 -22 -11 -28 -7 -5 3 -10 1 -10 -6 0 -9 -3 -10 -10 -3 -6 6 -32 9 -57 6 -32 -3 -44 -1 -39 7 4 6 3 11 -3 11 -5 0 -11 -4 -13 -10 -4 -11 -411 -15 -429 -4 -7 4 -118 6 -248 6 -178 -2 -237 1 -243 11 -6 9 -8 9 -8 -1 0 -10 -24 -13 -97 -12 -54 0 -125 -1 -159 -1 -78 -2 -110 7 -93 27 10 12 7 12 -16 0 -16 -8 -33 -12 -39 -9 -6 4 -5 0 2 -9 11 -14 -1 -16 -118 -16 -80 -1 -128 2 -125 8 7 11 35 116 35 130 0 6 -13 10 -29 10 -17 0 -33 5 -36 10 -4 7 -11 8 -18 1 -7 -5 -34 -7 -61 -6 -28 2 -54 1 -59 -2 -16 -10 -80 -10 -99 -1 -11 5 -18 5 -18 -1 0 -5 -50 -9 -115 -9 -71 0 -113 4 -112 10 1 6 -4 13 -11 15 -7 3 -11 -1 -10 -9 2 -9 -11 -14 -44 -15 -27 -1 -48 3 -48 8 0 5 12 9 28 9 44 0 53 12 33 39 -19 24 -41 22 -41 -5 0 -8 -10 -14 -24 -14 -20 0 -23 -4 -18 -22 5 -20 3 -21 -43 -15 -27 4 -50 8 -52 10 -1 2 3 18 9 35 8 21 19 32 33 32 15 0 17 3 7 9 -11 7 -8 25 17 97 35 103 55 132 77 113 11 -9 12 -14 3 -20 -10 -6 -10 -12 -1 -31 7 -13 10 -15 8 -6 -3 10 -1 20 4 23 15 9 12 23 -10 45 -18 18 -19 23 -6 48 7 15 17 41 20 59 8 35 14 37 103 41 41 2 54 -1 62 -15z m1608 -681 c15 -3 23 -11 23 -24 0 -10 -3 -17 -7 -15 -5 3 -163 8 -353 12 -190 5 -370 9 -400 10 -30 2 -68 3 -85 4 -23 1 -27 3 -15 11 15 9 788 11 837 2z" style="&#10;    opacity: 0.7;&#10;"/>
<path d="M5260 4087 c-15 -12 -40 -51 -40 -63 0 -3 9 -2 20 1 26 8 27 -16 0 -40 -11 -10 -18 -21 -15 -25 2 -3 -5 -14 -16 -23 -10 -9 -20 -30 -20 -47 -1 -16 -2 -35 -3 -42 -1 -7 19 -13 51 -15 46 -3 52 -1 46 14 -5 16 -4 16 13 -1 14 -13 15 -20 6 -23 -22 -8 -2 -23 32 -23 44 0 97 -27 89 -45 -6 -17 -43 -21 -43 -5 0 6 -10 10 -22 10 -21 -1 -22 -2 -5 -14 9 -7 17 -17 17 -21 0 -4 -6 -3 -12 3 -16 12 -88 21 -88 10 0 -22 151 -60 186 -47 11 3 24 2 31 -3 7 -5 22 -6 35 -2 13 4 28 7 35 6 6 -2 14 2 18 8 3 6 -4 10 -17 10 -27 0 -48 17 -48 38 0 10 9 13 33 10 30 -3 33 -1 29 19 -2 13 -8 20 -13 17 -5 -3 -9 0 -9 6 0 7 8 9 22 4 21 -6 22 -5 8 11 -14 17 -13 18 2 12 16 -6 16 -4 -1 26 -14 25 -26 33 -57 37 -31 4 -40 10 -42 28 -2 12 -8 22 -13 22 -5 0 -9 9 -9 19 0 11 -4 23 -10 26 -6 4 -10 -9 -10 -33 0 -26 -7 -45 -20 -57 -20 -18 -21 -18 -27 3 -4 18 -8 20 -19 11 -8 -6 -11 -15 -8 -20 3 -5 -6 -4 -19 2 -17 8 -23 17 -20 30 6 23 23 25 23 3 0 -8 5 -12 10 -9 6 3 10 28 10 55 l0 50 -40 6 c-32 5 -39 10 -35 23 3 10 -1 24 -7 34 -11 13 -16 14 -28 4z" style="&#10;    opacity: 0.7;&#10;"/>
<path d="M1636 6449 c-3 -17 -6 -69 -6 -115 0 -80 1 -85 24 -95 14 -7 43 -9 69 -5 54 8 57 15 57 139 0 85 -1 88 -26 97 -14 6 -45 10 -68 10 -41 0 -44 -2 -50 -31z" style="&#10;    opacity: 0.7;&#10;"/>
<path d="M3063 5563 c-16 -14 -21 -34 -25 -98 -3 -44 -3 -86 -1 -92 5 -14 168 -19 176 -5 3 4 8 39 12 79 l6 72 -38 10 c-21 6 -43 11 -49 11 -6 0 -19 9 -29 20 -22 24 -27 25 -52 3z" style="&#10;    opacity: 0.7;&#10;"/>
<path d="M6925 5496 c-22 -6 -47 -15 -55 -20 -23 -16 -58 -16 -64 0 -6 16 -29 18 -54 4 -58 -32 -94 -41 -144 -38 l-53 3 -3 -129 -3 -129 83 6 c46 4 202 14 348 22 146 9 267 20 268 26 2 5 11 9 20 9 15 0 15 2 2 10 -22 14 -1 12 45 -5 50 -18 119 -19 133 -2 11 14 16 191 6 231 -7 28 -29 31 -29 3 0 -9 -6 -22 -13 -29 -10 -10 -14 -9 -18 8 -7 28 -63 48 -98 34 -14 -5 -46 -7 -70 -4 -36 5 -47 3 -65 -15 -18 -18 -28 -21 -54 -14 -18 4 -51 7 -74 7 -33 -1 -42 3 -46 17 -6 21 -6 21 -62 5z" style="&#10;    opacity: 0.7;&#10;"/>
<path d="M6300 5423 c-1 -22 -30 -110 -60 -181 -13 -29 -20 -55 -17 -59 12 -11 209 -4 223 8 10 8 14 40 14 119 0 122 5 115 -89 119 -30 1 -58 4 -63 7 -4 3 -8 -3 -8 -13z" style="&#10;    opacity: 0.7;&#10;"/>
<path d="M3037 5023 c-3 -4 -6 -46 -8 -93 l-4 -85 83 -8 c67 -6 88 -4 105 8 12 8 34 15 49 15 54 0 64 15 58 85 -3 35 -9 67 -12 71 -11 10 -265 17 -271 7z" style="&#10;    opacity: 0.2;&#10;"/>
<path d="M4695 1209 c-11 -4 -15 -8 -10 -8 6 -1 3 -6 -5 -11 -13 -9 -13 -12 1 -23 8 -6 25 -32 37 -57 12 -25 35 -60 52 -78 50 -55 63 -87 30 -77 -11 4 -20 2 -20 -4 0 -6 11 -11 24 -11 17 0 31 -10 45 -34 12 -19 28 -37 36 -40 17 -6 21 9 5 19 -13 8 -13 25 1 25 6 0 17 7 25 15 14 13 14 15 0 15 -8 0 -18 -5 -21 -10 -4 -6 -11 -7 -17 -4 -6 4 1 13 17 21 20 11 24 18 16 26 -9 9 -14 9 -20 -1 -6 -11 -15 -8 -37 12 -24 21 -27 27 -14 35 12 8 10 12 -10 21 -22 9 -20 10 13 5 20 -3 37 -4 37 -2 0 3 -20 14 -45 26 -31 15 -45 27 -45 41 0 21 -37 70 -53 70 -6 0 -2 -9 8 -20 10 -11 13 -20 8 -20 -6 0 -18 11 -27 25 -14 22 -15 25 -1 25 8 0 15 4 15 9 0 14 -23 19 -45 10z" style="&#10;    opacity: 0.7;&#10;"/>
</g>
</svg>